<svg version="1.0" xmlns="http://www.w3.org/2000/svg" width="1200" height="1200" viewBox="0 0 900 900">
    <path d="M257 72.4c-13.4 3-25.3 13.3-30.7 26.7-1.6 4.1-1.8 11.6-2.3 100.4l-.5 96-59.5.6c-35.6.3-61.1 1-63.5 1.6-10.3 2.6-21.6 11.8-26.5 21.4-5.2 10-5 2.1-5 244.4 0 245.1-.2 234.3 5.4 245.1 3.3 6.2 10.4 13.2 17.1 16.9 10.5 5.8-9.9 5.5 357.5 5.5 367.8 0 346.7.3 357.7-5.5 6.2-3.3 14.2-11.4 17.3-17.6 5-10 5-10.3 5-131.9 0-121.6 0-121.9-5-131.9-4.7-9.5-16.2-18.7-26.5-21.4-2.4-.6-27.9-1.3-63.5-1.6l-59.5-.6L674 312c-.5-196.8-.6-208.7-2.3-212.9-5.6-13.7-17.3-23.8-31.1-26.7-8.6-1.9-375.3-1.8-383.6 0zm126 28.3c0 .5-2.8 6.4-6.3 13.3l-6.2 12.5h-118l-.3-7c-.4-8.6 1.6-14.1 6-17.3l3.3-2.2h60.7c33.5 0 60.8.3 60.8.7zm256.7 1.5c6.7 4.6 6.4-2.5 6.1 129.8l-.3 119.5h-126l-.6-12c-.4-9.1-1.1-13.1-2.7-16.8-6.1-13.8-17.3-22.7-32-25.6-3.5-.7-42.7-1.1-117.2-1.1-61.5 0-112.5-.3-113.4-.6-1.4-.6-1.6-7.6-1.6-69.4 0-61.8.2-68.8 1.6-69.4.9-.3 29.6-.6 63.9-.6 67.1 0 66.3.1 71.3-5.2 1.2-1.4 7.3-12.6 13.5-25 6.2-12.5 11.9-23.3 12.6-24.2 1.2-1.4 12.1-1.6 111.4-1.6h110.1l3.3 2.2zM484.5 327c6.6 4.1 6.6 4.4 6.3 45l-.3 36.5h-392l-.3-37.7L98 333l4-4 4-4h187.6c185.2 0 187.7 0 190.9 2zm159.9 54.6c1.4.6 1.6 7.6 1.6 69.4 0 61.8-.2 68.8-1.6 69.4-.9.3-28.9.6-62.3.6-45.9 0-61-.3-61.9-1.2-1.7-1.7-1.7-135.9 0-137.6.9-.9 16-1.2 61.9-1.2 33.4 0 61.4.3 62.3.6zM490.5 479v41.5l-6.5.2c-17.9.6-28.4 4.7-37.4 14.4-5.7 6.1-8.7 11.6-10.5 19.1-.8 3.3-1.1 32.8-1.1 97 0 50.8-.4 92.9-.8 93.5-.6 1-32.4 1.3-149.3 1.5-129.6.3-148.8.5-151.4 1.8-3.1 1.6-7.2 6.9-8.1 10.7-.9 3.5 3.4 11.4 7.6 13.8 3.5 2 5.4 2 152.5 2.5l149 .5.7 10.5c.4 5.8.8 11.6 1 13l.3 2.5-165.2.3-165.3.2-4-4-4-4V437l196.3.2 196.2.3V479zM796 554l4 4v236l-4 4-4 4H632.4c-175.3 0-162.2.5-166.9-5.8-2-2.7-2-4.3-2-120.2s0-117.5 2-120.2c4.7-6.2-8.5-5.7 166.8-5.8H792l4 4z M596.6 185.9c-1.5 1-3.7 3.2-4.7 4.7-1.8 2.7-1.9 5.2-1.9 35.4s.1 32.7 1.9 35.4c4.3 6.5 12.3 8.5 18.6 4.6 6.6-4.1 6.5-3.4 6.5-40.6v-33.7l-4-3.9c-3.6-3.3-4.7-3.8-8.8-3.8-2.9 0-5.8.7-7.6 1.9zM134 354.2c-3.4 1.7-5.1 3.5-6.9 7.1-2.6 5.2-2.4 7.5 1.2 12.8 3.9 5.9 6.1 6.4 25.8 6.4 17 0 17.7-.1 21.1-2.5 8.8-6 8.9-16 .1-22.7-3.6-2.8-3.8-2.8-20.2-3.1-15.6-.3-16.9-.2-21.1 2zM219.3 353.5c-5.4 2.3-9.3 7.7-9.3 12.9 0 3.2 2.4 8.8 4.7 10.7 4.3 3.8 7 3.9 79.8 3.9 62.6 0 71.7-.2 75-1.6 4.9-2 6.2-3.4 8-8.5 2.5-7-.3-13.2-7.7-17-3.6-1.8-7-1.9-75.5-1.9-58.7.1-72.4.3-75 1.5zM415.4 353.9c-7.9 3.6-10.8 13.2-6.1 20.2 3.8 5.6 6.4 6.4 23.7 6.7 20.7.5 25.4-.9 28.6-8.7 1.7-4.1 1.8-7.2.2-10.8-3.6-7.8-7.9-9.3-27-9.3-12.7 0-16 .4-19.4 1.9zM596.6 410.9c-1.5 1-3.7 3.2-4.7 4.7-1.8 2.7-1.9 5.2-1.9 35.4s.1 32.7 1.9 35.4c4.3 6.5 12.3 8.5 18.7 4.5 6.6-4 6.4-2.9 6.4-40.3v-33.9l-4-3.9c-3.6-3.3-4.7-3.8-8.8-3.8-2.9 0-5.8.7-7.6 1.9zM276 494.6c-11.5 2.3-24 6.5-33 11.1-37.4 19.1-61 57.7-61 99.8 0 13.9 2.8 30 7 40 8.6 20.6 20 36 35.4 47.9 10.5 8.1 15.6 11.1 28.9 17 19.9 8.9 52.8 10 74.7 2.6 5.8-1.9 18.4-7.3 20-8.4.8-.6 3.1-2 5-3 17.8-9.8 38.3-34.1 45.6-54.1 8.4-23 10.3-41.1 6.5-60.5-4.9-25.3-14.2-43.1-31.6-60.5-9.4-9.5-17.4-15.4-27.8-20.8-21.3-10.9-48.3-15.2-69.7-11.1zm31 27.9c27.4 4.1 50.6 20.7 62.8 45 13.8 27.2 11.8 60.1-5.2 85.4-4.9 7.4-18.5 20.3-26.1 24.7-6.2 3.6-9.2 5-18.4 8.6-4.4 1.7-18.5 3.8-25.8 3.8-12.3 0-26.2-3.5-38.1-9.6-8.9-4.6-11.4-6.4-17.9-12.6-4.7-4.3-5.5-6.8-2.2-6.8 3.6 0 13.2-6 18.3-11.3 2.7-2.9 6.3-8.1 8-11.7l3.1-6.5.3-23.8c.3-20.3.1-24.6-1.4-29-4.2-12.9-13.5-23.1-24.9-27.2-6.7-2.4-6.8-2.7-4.1-5.5 8-8.5 21.5-16.8 33.4-20.6 4.8-1.6 20.2-4.1 25.7-4.2 1.7-.1 7.3.5 12.5 1.3zm-82.4 54c6 1.6 9.6 4.2 12 8.7 1.9 3.6 2 37.3.2 41.5-1.9 4.3-4.8 6.7-10.5 8.6-7.6 2.7-10.3 2.1-12-2.8-2.2-6.2-4.3-19.3-4.3-26.5 0-6.8 2.2-20.9 3.9-25.1.5-1.3 1.2-3.2 1.5-4.2.7-2.1 1.9-2.1 9.2-.2zM500.5 578.6c-1.6.8-3.8 2.3-4.9 3.2-4.7 4.3-4.6 1.6-4.6 94.2 0 96.5-.4 90.3 6.7 95.7l3.6 2.8 86.1.3c57.7.2 87.3 0 89.7-.7 4.2-1.3 7.9-4.5 9.7-8.4.9-2.2 1.2-22.3 1.2-89.7 0-91.1.1-89.9-4.3-94.3-4.8-4.8-3.2-4.7-94.4-4.7-75.9 0-86.1.2-88.8 1.6zm158.9 29c.8 2 .8 134.8 0 136.8-.6 1.4-7.6 1.6-69.3 1.6-52.1 0-69-.3-69.9-1.2-1.7-1.7-1.7-135.9 0-137.6.9-.9 17.8-1.2 69.9-1.2 61.7 0 68.7.2 69.3 1.6zM725 606.7c-2.4.9-6.1 4.6-7.6 7.5-3.1 6-.3 13.9 6.2 17.7 3.2 1.9 5.1 2.1 20.5 2.1 18.8 0 20.9-.5 25.3-6.2 3.6-4.9 4.1-7.9 1.8-13-3.7-8.2-3.9-8.3-25.6-8.5-10.5-.1-19.8 0-20.6.4zM723.7 663.7c-3.9 2-7.7 8.1-7.7 12.3 0 4.7 4.1 10.6 8.7 12.5 4.6 2 34.8 2.1 39 .2 3.8-1.7 7-5.2 8.3-9.3 2-5.9-1.8-13.2-8.3-16.2-4.2-1.8-36.3-1.5-40 .5zM723.2 720.3c-4.2 2.8-7.2 7.9-7.2 12.1 0 4.1 4.9 11.2 8.8 12.7 1.6.6 10.1.9 21.3.7 21.1-.3 21.5-.5 25.1-8.6 2.3-5.1 1.8-8.1-1.8-13-4.4-5.7-6.4-6.2-25.6-6.1-16.1 0-17.5.2-20.6 2.2z"/>
</svg>