<svg version="1.0" xmlns="http://www.w3.org/2000/svg"  width="900.000000pt" height="900.000000pt" viewBox="0 0 900.000000 900.000000"  preserveAspectRatio="xMidYMid meet">  <g transform="translate(0.000000,900.000000) scale(0.100000,-0.100000)" fill="#000000" stroke="none"> 
    <path d="M2570 8276 c-134 -30 -253 -133 -307 -267 -16 -41 -18 -116 -23 -1004 l-5 -960 -595 -6 c-356 -3 -611 -10 -635 -16 -103 -26 -216 -118 -265 -214 -52 -100 -50 -21 -50 -2444 0 -2451 -2 -2343 54 -2451 33 -62 104 -132 171 -169 105 -58 -99 -55 3575 -55 3678 0 3467 -3 3577 55 62 33 142 114 173 176 50 100 50 103 50 1319 0 1216 0 1219 -50 1319 -47 95 -162 187 -265 214 -24 6 -279 13 -635 16 l-595 6 -5 2085 c-5 1968 -6 2087 -23 2129 -56 137 -173 238 -311 267 -86 19 -3753 18 -3836 0z m1260 -283 c0 -5 -28 -64 -63 -133 l-62 -125 -590 0 -590 0 -3 70 c-4 86 16 141 60 173 l33 22 607 0 c335 0 608 -3 608 -7z m2567 -15 c67 -46 64 25 61 -1298 l-3 -1195 -630 0 -630 0 -6 120 c-4 91 -11 131 -27 168 -61 138 -173 227 -320 256 -35 7 -427 11 -1172 11 -615 0 -1125 3 -1134 6 -14 6 -16 76 -16 694 0 618 2 688 16 694 9 3 296 6 639 6 671 0 663 -1 713 52 12 14 73 126 135 250 62 125 119 233 126 242 12 14 121 16 1114 16 l1101 0 33 -22z m-1552 -2248 c66 -41 66 -44 63 -450 l-3 -365 -1960 0 -1960 0 -3 377 -2 378 40 40 40 40 1876 0 c1852 0 1877 0 1909 -20z m1599 -546 c14 -6 16 -76 16 -694 0 -618 -2 -688 -16 -694 -9 -3 -289 -6 -623 -6 -459 0 -610 3 -619 12 -17 17 -17 1359 0 1376 9 9 160 12 619 12 334 0 614 -3 623 -6z m-1539 -974 l0 -415 -65 -2 c-179 -6 -284 -47 -374 -144 -57 -61 -87 -116 -105 -191 -8 -33 -11 -328 -11 -970 0 -508 -4 -929 -8 -935 -6 -10 -324 -13 -1493 -15 -1296 -3 -1488 -5 -1514 -18 -31 -16 -72 -69 -81 -107 -9 -35 34 -114 76 -138 35 -20 54 -20 1525 -25 l1490 -5 7 -105 c4 -58 8 -116 10 -130 l3 -25 -1652 -3 -1653 -2 -40 40 -40 40 0 1785 0 1785 1963 -2 1962 -3 0 -415z m3055 -750 l40 -40 0 -1180 0 -1180 -40 -40 -40 -40 -1596 0 c-1753 0 -1622 -5 -1669 58 -20 27 -20 43 -20 1202 0 1159 0 1175 20 1202 47 62 -85 57 1668 58 l1597 0 40 -40z"/> <path d="M5966 7141 c-15 -10 -37 -32 -47 -47 -18 -27 -19 -52 -19 -354 0 -302 1 -327 19 -354 43 -65 123 -85 186 -46 66 41 65 34 65 406 l0 337 -40 39 c-36 33 -47 38 -88 38 -29 0 -58 -7 -76 -19z"/> <path d="M1340 5458 c-34 -17 -51 -35 -69 -71 -26 -52 -24 -75 12 -128 39 -59 61 -64 258 -64 170 0 177 1 211 25 88 60 89 160 1 227 -36 28 -38 28 -202 31 -156 3 -169 2 -211 -20z"/> <path d="M2193 5465 c-54 -23 -93 -77 -93 -129 0 -32 24 -88 47 -107 43 -38 70 -39 798 -39 626 0 717 2 750 16 49 20 62 34 80 85 25 70 -3 132 -77 170 -36 18 -70 19 -755 19 -587 -1 -724 -3 -750 -15z"/> <path d="M4154 5461 c-79 -36 -108 -132 -61 -202 38 -56 64 -64 237 -67 207 -5 254 9 286 87 17 41 18 72 2 108 -36 78 -79 93 -270 93 -127 0 -160 -4 -194 -19z"/> <path d="M5966 4891 c-15 -10 -37 -32 -47 -47 -18 -27 -19 -52 -19 -354 0 -302 1 -327 19 -354 43 -65 123 -85 187 -45 66 40 64 29 64 403 l0 339 -40 39 c-36 33 -47 38 -88 38 -29 0 -58 -7 -76 -19z"/> <path d="M2760 4054 c-115 -23 -240 -65 -330 -111 -374 -191 -610 -577 -610 -998 0 -139 28 -300 70 -400 86 -206 200 -360 354 -479 105 -81 156 -111 289 -170 199 -89 528 -100 747 -26 58 19 184 73 200 84 8 6 31 20 50 30 178 98 383 341 456 541 84 230 103 411 65 605 -49 253 -142 431 -316 605 -94 95 -174 154 -278 208 -213 109 -483 152 -697 111z m310 -279 c274 -41 506 -207 628 -450 138 -272 118 -601 -52 -854 -49 -74 -185 -203 -261 -247 -62 -36 -92 -50 -184 -86 -44 -17 -185 -38 -258 -38 -123 0 -262 35 -381 96 -89 46 -114 64 -179 126 -47 43 -55 68 -22 68 36 0 132 60 183 113 27 29 63 81 80 117 l31 65 3 238 c3 203 1 246 -14 290 -42 129 -135 231 -249 272 -67 24 -68 27 -41 55 80 85 215 168 334 206 48 16 202 41 257 42 17 1 73 -5 125 -13z m-824 -540 c60 -16 96 -42 120 -87 19 -36 20 -373 2 -415 -19 -43 -48 -67 -105 -86 -76 -27 -103 -21 -120 28 -22 62 -43 193 -43 265 0 68 22 209 39 251 5 13 12 32 15 42 7 21 19 21 92 2z"/> <path d="M5005 3214 c-16 -8 -38 -23 -49 -32 -47 -43 -46 -16 -46 -942 0 -965 -4 -903 67 -957 l36 -28 861 -3 c577 -2 873 0 897 7 42 13 79 45 97 84 9 22 12 223 12 897 0 911 1 899 -43 943 -48 48 -32 47 -944 47 -759 0 -861 -2 -888 -16z m1589 -290 c8 -20 8 -1348 0 -1368 -6 -14 -76 -16 -693 -16 -521 0 -690 3 -699 12 -17 17 -17 1359 0 1376 9 9 178 12 699 12 617 0 687 -2 693 -16z"/> <path d="M7250 2933 c-24 -9 -61 -46 -76 -75 -31 -60 -3 -139 62 -177 32 -19 51 -21 205 -21 188 0 209 5 253 62 36 49 41 79 18 130 -37 82 -39 83 -256 85 -105 1 -198 0 -206 -4z"/> <path d="M7237 2363 c-39 -20 -77 -81 -77 -123 0 -47 41 -106 87 -125 46 -20 348 -21 390 -2 38 17 70 52 83 93 20 59 -18 132 -83 162 -42 18 -363 15 -400 -5z"/> <path d="M7232 1797 c-42 -28 -72 -79 -72 -121 0 -41 49 -112 88 -127 16 -6 101 -9 213 -7 211 3 215 5 251 86 23 51 18 81 -18 130 -44 57 -64 62 -256 61 -161 0 -175 -2 -206 -22z"/> </g> </svg> 