<svg width="16" height="16" viewBox="0 0 16 16" fill="none" xmlns="http://www.w3.org/2000/svg">
<g clip-path="url(#clip0_54_436)">
<path d="M15.3392 8.00076C15.3392 8.72807 14.0168 9.23056 13.7986 9.88515C13.5805 10.5397 14.3474 11.7497 13.9375 12.3117C13.5276 12.8737 12.1523 12.5167 11.5837 12.9332C11.0151 13.3498 10.9225 14.7581 10.2613 14.9829C9.60013 15.2077 8.72738 14.1035 8.00007 14.1035C7.27275 14.1035 6.38678 15.2011 5.73219 14.9895C5.07763 14.7779 4.97844 13.3497 4.40982 12.9398C3.84121 12.5298 2.47915 12.8869 2.04938 12.3183C1.61962 11.7496 2.40643 10.5661 2.18823 9.89172C1.97004 9.21731 0.660889 8.72804 0.660889 8.00073C0.660889 7.27342 1.98326 6.77093 2.20145 6.11634C2.41965 5.46175 1.65268 4.2518 2.04938 3.68318C2.44609 3.11456 3.83458 3.4782 4.4032 3.06165C4.97182 2.64511 5.06438 1.2368 5.72557 1.01198C6.38675 0.787154 7.27272 1.89795 8.00003 1.89795C8.72734 1.89795 9.61332 0.800373 10.2679 1.01198C10.9225 1.22358 11.0217 2.6517 11.5903 3.06165C12.1589 3.47158 13.5275 3.11456 13.9441 3.68318C14.3606 4.2518 13.587 5.43531 13.8052 6.10972C14.0235 6.78418 15.3392 7.27345 15.3392 8.00076Z" fill="#16A571"/>
<path d="M5.91362 15.6794C5.78799 15.6794 5.65973 15.6609 5.52882 15.6179C4.87954 15.4083 4.61441 14.7517 4.38034 14.1732C4.2858 13.9405 4.12842 13.551 4.02329 13.475C3.91947 13.4002 3.50955 13.3725 3.26426 13.356C2.67383 13.3163 1.93924 13.2674 1.52203 12.7153C1.09358 12.1486 1.28202 11.4266 1.43343 10.8468C1.49494 10.6107 1.59872 10.2153 1.55906 10.0937C1.51941 9.97135 1.22055 9.72341 1.02351 9.55877C0.567961 9.18126 0 8.70983 0 8.0004C0 7.28631 0.578524 6.8096 1.04401 6.42611C1.22783 6.2747 1.53528 6.02147 1.57494 5.90709C1.61197 5.78743 1.50881 5.38673 1.448 5.14741C1.29393 4.54507 1.11873 3.86142 1.5075 3.30467C1.90555 2.73406 2.64805 2.68581 3.24445 2.6468C3.49305 2.63093 3.90894 2.60383 4.01273 2.5278C4.12051 2.44976 4.27721 2.063 4.37043 1.83224C4.60316 1.257 4.86698 0.605751 5.5136 0.386242C6.17147 0.161452 6.79365 0.558155 7.29217 0.875512C7.51831 1.01964 7.85948 1.23653 8.00095 1.23653C8.14508 1.23653 8.48957 1.01833 8.71767 0.8742C9.23669 0.546249 9.8245 0.174671 10.4718 0.382929C11.1204 0.592532 11.3862 1.24843 11.6196 1.82696C11.7142 2.05969 11.8722 2.4498 11.9773 2.52583C12.0812 2.60121 12.4924 2.6283 12.7377 2.64483C13.3301 2.68449 14.068 2.73409 14.4773 3.2928C14.8892 3.85479 14.7054 4.56954 14.5579 5.14412C14.4964 5.38282 14.394 5.78218 14.4336 5.90647C14.4733 6.02813 14.7847 6.28664 14.9712 6.44071C15.4294 6.81957 16 7.29165 16 8.00112C16 8.71521 15.4214 9.19257 14.956 9.57606C14.7728 9.72747 14.4647 9.9807 14.425 10.0951C14.3887 10.2141 14.4892 10.6101 14.5493 10.8475C14.7034 11.4551 14.878 12.1448 14.4713 12.7021C14.0673 13.2569 13.3638 13.3038 12.7436 13.3461C12.495 13.3626 12.0792 13.3904 11.974 13.4678C11.8669 13.5465 11.7109 13.9333 11.617 14.164C11.3836 14.7385 11.1204 15.3898 10.4738 15.6107C9.8159 15.8348 9.19769 15.4408 8.70179 15.1254C8.47832 14.9826 8.14046 14.767 7.99961 14.767C7.85548 14.767 7.511 14.9852 7.28289 15.1293C6.86969 15.3891 6.41151 15.6794 5.91362 15.6794ZM5.91362 1.64311C5.84949 1.70195 5.6908 2.09403 5.59626 2.3281C5.40385 2.80284 5.20549 3.29408 4.79426 3.59494C4.37971 3.89842 3.84613 3.93345 3.33039 3.96717C3.0851 3.98239 2.67383 4.00948 2.57267 4.08221C2.56142 4.16418 2.66655 4.57413 2.72871 4.81942C2.85696 5.32191 2.99053 5.84097 2.82855 6.32561C2.6712 6.79835 2.27119 7.12761 1.88439 7.44631C1.69794 7.59969 1.35146 7.88599 1.32105 8.0103C1.34949 8.11212 1.68735 8.39313 1.86917 8.54389C2.24009 8.85265 2.65995 9.2011 2.81796 9.68841C2.976 10.1764 2.83646 10.7113 2.71349 11.1827C2.65133 11.4207 2.54685 11.8207 2.58786 11.9377C2.66917 11.9926 3.1135 12.0224 3.35286 12.0383C3.86066 12.072 4.38562 12.107 4.79688 12.4032C5.21143 12.7021 5.41244 13.1986 5.60682 13.6787C5.7007 13.9107 5.85743 14.2982 5.9599 14.3716C6.03262 14.3557 6.37314 14.1389 6.57677 14.0106C6.99729 13.7448 7.47334 13.4433 8.00095 13.4433C8.52726 13.4433 8.99868 13.7441 9.41457 14.0086C9.61624 14.1368 9.95278 14.3531 10.0731 14.3531C10.1379 14.2936 10.2966 13.9015 10.3911 13.6674C10.5836 13.192 10.7826 12.7014 11.1931 12.4006C11.6077 12.0964 12.1644 12.0594 12.6557 12.0263C12.9036 12.0105 13.3182 11.982 13.4187 11.9067C13.4326 11.8227 13.3294 11.4161 13.2679 11.1728C13.1416 10.6743 13.0107 10.1585 13.1714 9.67719C13.3287 9.20445 13.7288 8.8745 14.1155 8.55648C14.2967 8.40638 14.6313 8.13068 14.6762 8.00174C14.6326 7.87677 14.306 7.60635 14.1294 7.46022C13.7565 7.15211 13.334 6.80235 13.1767 6.31505C13.0186 5.82578 13.1562 5.28954 13.2772 4.81614C13.3393 4.57679 13.4418 4.17546 13.4015 4.05842C13.3228 4.01017 12.9016 3.98239 12.6497 3.9652C12.1412 3.93148 11.6156 3.89645 11.2037 3.59956C10.7892 3.30071 10.5882 2.80415 10.3938 2.32413C10.2999 2.09272 10.1432 1.70526 10.0407 1.63189C9.96863 1.64842 9.62746 1.86462 9.42379 1.99356C9.00328 2.25935 8.52722 2.56086 7.99961 2.56086C7.47331 2.56086 6.99922 2.25869 6.58071 1.9929C6.37779 1.86062 6.03528 1.64311 5.91362 1.64311ZM14.6789 8.0103H14.6862H14.6789Z" fill="#101010"/>
<path d="M7.12102 10.7575C6.9458 10.7575 6.77788 10.6888 6.65357 10.5638L4.88822 8.79846C4.62971 8.53995 4.62971 8.12206 4.88822 7.86354C5.14673 7.60503 5.56462 7.60503 5.82313 7.86354L7.0774 9.11716L10.0249 5.59239C10.259 5.31338 10.6749 5.27434 10.9565 5.50973C11.2369 5.7438 11.2732 6.16101 11.0399 6.44133L7.62817 10.5208C7.50916 10.663 7.33594 10.7489 7.15012 10.7569C7.14087 10.7575 7.13093 10.7575 7.12102 10.7575Z" fill="white"/>
</g>
<defs>
<clipPath id="clip0_54_436">
<rect width="16" height="16" fill="white"/>
</clipPath>
</defs>
</svg>
