<svg version="1.0" xmlns="http://www.w3.org/2000/svg" width="80" height="80" viewBox="0 0 900 900" fill="#ff9017">
    <path d="M71.7 1.8c-1.3 1.4-1.7 3.8-1.7 10V20h-3.3c-2.4 0-4.1.9-6.4 3.2C51.9 32.1 10 83.5 10 85c0 .9.8 2.4 1.8 3.3 1.7 1.6 8.6 1.7 78.4 1.7 72.8 0 76.6-.1 78.1-1.8 1-1 1.7-2.5 1.7-3.4 0-1.3-42.6-53.5-50.3-61.6-2.3-2.3-4-3.2-6.4-3.2H110v-8.3C110-.2 110.4 0 89.8 0 75.1 0 73.1.2 71.7 1.8zM100 15v5H80V10h20v5zm33.4 39.7L154 79.5l-32 .3c-17.6.1-46.4.1-64 0l-32-.3 20.7-24.8L67.3 30h45.4l20.7 24.7z M181.7 66.8c-1.5 1.7-1.7 7.5-1.7 62.5V190h-25v-2.5c0-2.2.4-2.5 3.3-2.5 5.7 0 8.6-5 4.9-8.3-1.6-1.5-5.1-1.7-28.4-1.7-24.4 0-26.6.1-28.1 1.8-3.5 3.8-.9 8.2 4.9 8.2 3 0 3.4.3 3.4 2.5v2.5H65v-2.5c0-2.2.4-2.5 3.3-2.5 5.7 0 8.6-5 4.9-8.3-1.6-1.5-5.1-1.7-28.4-1.7-24.4 0-26.6.1-28.1 1.8-1 1-1.7 2.5-1.7 3.4 0 2.4 3.4 4.8 6.8 4.8 2.7 0 3.2.4 3.2 2.5v2.5H14.2c-9.3 0-11.1.3-12.5 1.8-1.5 1.7-1.7 6.8-1.7 53.4 0 48.6.1 51.6 1.8 53.1 1.7 1.6 13.4 1.7 148.4 1.7 140.6 0 146.6-.1 148.1-1.8 1.6-1.7 1.7-11.2 1.7-115.9 0-109.2-.1-114.1-1.8-115.6S291 65 239.8 65c-53.5 0-56.6.1-58.1 1.8zM290 110v35H190V75h100v35zm0 112.5V290H190V155h100v67.5zm-235-35c0 2.5 0 2.5-10 2.5s-10 0-10-2.5 0-2.5 10-2.5 10 0 10 2.5zm90 0c0 2.5 0 2.5-10 2.5s-10 0-10-2.5 0-2.5 10-2.5 10 0 10 2.5zM80 210v10H10v-20h70v10zm100 35v45H90v-90h90v45zM80 260v30H10v-60h70v30z M196.7 111.8c-1.4 1.5-1.7 4.1-1.7 13.4 0 9.9.3 11.7 1.8 13.1 2.4 2.2 4.5 2.1 6.5-.1 1.4-1.5 1.7-4.1 1.7-13.4 0-9.9-.3-11.7-1.8-13.1-2.4-2.2-4.5-2.1-6.5.1zM196.7 161.8c-1.4 1.5-1.7 4.1-1.7 13.4 0 9.9.3 11.7 1.8 13.1 2.4 2.2 4.5 2.1 6.5-.1 1.4-1.5 1.7-4.1 1.7-13.4 0-9.9-.3-11.7-1.8-13.1-2.4-2.2-4.5-2.1-6.5.1zM101.7 211.8c-1.5 1.6-1.7 5.5-1.7 33.4 0 29.2.1 31.6 1.8 33.1 1.6 1.5 5.5 1.7 33.4 1.7 29.2 0 31.6-.1 33.1-1.8 1.5-1.6 1.7-5.5 1.7-33.4 0-29.2-.1-31.6-1.8-33.1-1.6-1.5-5.5-1.7-33.4-1.7-29.2 0-31.6.1-33.1 1.8zM160 245v25h-50v-50h50v25z"/>
</svg>
