<?xml version="1.0" standalone="no"?>
<!DOCTYPE svg PUBLIC "-//W3C//DTD SVG 20010904//EN"
 "http://www.w3.org/TR/2001/REC-SVG-20010904/DTD/svg10.dtd">
<svg version="1.0" xmlns="http://www.w3.org/2000/svg"
 width="510.000000pt" height="137.000000pt" viewBox="0 0 510.000000 137.000000"
 preserveAspectRatio="xMidYMid meet">

<g transform="translate(0.000000,137.000000) scale(0.100000,-0.100000)"
fill="#000000" stroke="none">
<path d="M4230 1232 c-188 -62 -322 -196 -374 -372 -20 -65 -22 -225 -5 -297
46 -192 196 -338 399 -389 86 -22 273 -14 380 16 97 27 276 115 297 146 14 22
14 26 -1 49 -9 14 -21 25 -26 25 -6 0 -10 46 -10 113 l0 112 30 17 c35 20 40
56 12 81 -16 15 -46 17 -204 17 -103 0 -194 -3 -203 -6 -41 -16 -36 -96 7
-109 16 -6 18 -19 18 -143 0 -75 -4 -142 -8 -149 -11 -17 -58 -33 -96 -33 -45
0 -129 44 -167 88 -50 57 -88 147 -96 232 -20 195 35 350 156 435 89 62 220
29 339 -85 55 -54 81 -61 113 -29 16 16 19 27 13 52 -22 105 -93 230 -132 235
-13 2 -33 -3 -46 -11 -20 -13 -31 -13 -87 -1 -112 24 -246 27 -309 6z"/>
<path d="M130 707 c0 -288 2 -526 4 -528 2 -2 241 -3 530 -1 l526 2 -2 523 -3
522 -527 3 -528 2 0 -523z m614 406 c-3 -118 -109 -261 -238 -323 -81 -38
-134 -49 -235 -50 l-84 0 5 44 c7 56 58 167 103 221 46 57 132 114 213 142 53
18 85 22 152 20 l85 -2 -1 -52z m138 1 c148 -75 248 -238 248 -404 0 -132 -47
-246 -141 -340 -54 -55 -153 -115 -170 -104 -13 8 -11 874 1 874 6 0 34 -12
62 -26z m-450 -465 c170 -57 299 -204 315 -360 5 -42 3 -47 -18 -52 -109 -30
-298 31 -397 126 -70 68 -142 210 -142 282 0 25 0 25 90 25 65 0 108 -6 152
-21z"/>
<path d="M1655 1206 c-22 -34 -7 -60 50 -87 29 -14 49 -32 59 -54 27 -56 42
-14 -174 -485 -62 -135 -119 -253 -128 -262 -8 -10 -39 -24 -68 -33 -42 -12
-55 -21 -60 -39 -7 -30 11 -66 34 -66 123 -4 299 3 310 12 23 19 11 71 -20 86
-32 15 -34 22 -13 63 l16 29 202 -2 202 -3 40 -93 40 -92 197 0 c190 0 198 1
208 21 20 37 4 66 -46 85 -56 21 -41 -9 -269 527 l-179 417 -193 0 -193 0 -15
-24z m278 -530 c31 -74 57 -139 57 -145 0 -7 -41 -11 -125 -11 -105 0 -125 2
-125 15 0 9 21 59 46 113 25 53 52 112 60 130 8 17 18 32 22 32 4 0 33 -60 65
-134z"/>
<path d="M2686 1211 c-25 -27 -17 -52 27 -80 l37 -24 -2 -406 -3 -405 -25 -13
c-48 -24 -62 -60 -34 -87 14 -14 68 -16 448 -16 l432 0 60 83 c82 112 85 118
71 148 -20 38 -51 35 -128 -15 -92 -59 -140 -68 -329 -64 l-155 3 0 145 0 145
137 3 137 3 16 -30 c19 -37 49 -55 80 -47 28 7 159 188 167 230 7 34 -20 66
-55 66 -13 0 -44 -16 -69 -35 l-45 -35 -184 2 -184 3 0 145 0 145 180 0 c176
0 181 -1 240 -28 32 -15 74 -39 92 -53 42 -32 82 -29 100 6 14 28 14 27 -76
154 l-53 76 -433 0 c-414 0 -433 -1 -449 -19z"/>
</g>
</svg>
