<svg width="130" height="84" xmlns="http://www.w3.org/2000/svg">
 <g id="Layer_1">
  <title>Layer 1</title>
  <g stroke="null">
   <g stroke="null" clip-rule="evenodd" fill-rule="evenodd">
    <path stroke="null" d="m0.03991,-23.61541l129.5695,0l0,129.5695l-129.5695,0l0,-129.5695z" fill="#fff"/>
    <path stroke="null" d="m13.10132,32.36292l-6.94915,6.29913c-0.2514,0.22922 -0.39592,0.5512 -0.39592,0.892l0,9.52768c0,0.66614 0.54112,1.20524 1.20524,1.20524l14.02466,0c0.66278,0 1.20323,-0.5391 1.20323,-1.20524l0,-9.52701c0,-0.34147 -0.14587,-0.67018 -0.40399,-0.8994l-7.07417,-6.29981a1.20592,1.20592 0 0 0 -1.60991,0.00739zm0.81403,2.12481c1.25297,1.11651 5.54359,4.93592 6.21108,5.53014l0,8.24648l-12.30721,0l0,-8.25186c0.65472,-0.59355 4.8519,-4.39884 6.09613,-5.52477z"/>
    <path stroke="null" d="m13.91871,39.04118c-0.57405,0.51826 -2.5093,2.27202 -2.80977,2.54493l0,3.80395l5.67198,0l0,-3.79857c-0.30854,-0.2756 -2.28546,-2.03473 -2.8622,-2.55031zm69.60035,-0.45306l0,2.26866l4.50841,0l0,8.51805l2.47233,0l0,-8.51805l4.39548,0l0,-2.26866l-11.37622,0zm37.95411,0l0,7.65965l-6.76631,-6.98746c-0.59893,-0.63388 -1.29868,-0.89402 -2.07708,-0.77101c-0.70648,0.10957 -1.16424,0.68631 -1.16424,1.46942l0,9.41677l2.4199,0l0,-7.661l6.65741,6.87924c0.69034,0.72799 1.31683,1.00426 2.03473,0.90477c1.17903,-0.16939 1.31548,-1.03652 1.31548,-1.67578l0,-9.23461l-2.4199,0zm-25.3908,5.37957c0,4.67713 2.35402,5.58997 6.59355,5.58997c4.23684,0 6.59087,-0.91284 6.59087,-5.58997c0,-4.67646 -2.35402,-5.5893 -6.59087,-5.5893c-4.23953,0 -6.59355,0.91284 -6.59355,5.5893zm10.57496,0c0,3.11831 -1.36523,3.26283 -3.98208,3.26283c-2.61887,0 -3.98342,-0.14452 -3.98342,-3.26283c0,-3.11764 1.36388,-3.26216 3.98342,-3.26216c2.61685,0 3.98208,0.14452 3.98208,3.26216zm-42.27632,5.40444l2.45284,0l0,-10.78536l-2.45284,0l0,10.78536zm-5.35604,-4.09434c1.54067,-0.38046 2.41452,-1.55411 2.41452,-3.15528c0,-2.18194 -1.43984,-3.53574 -3.75689,-3.53574l-7.71477,0l0,10.78536l2.42057,0l0,-3.84898l3.92024,0l2.71567,3.84898l2.84002,0l-2.83935,-4.09434zm-6.63658,-4.45127l4.95609,0c1.45866,0 1.6341,0.66144 1.6341,1.28725c0,0.63052 -0.18956,1.29801 -1.62738,1.29801l-4.96281,0l0,-2.58526zm24.51829,1.76653l-2.16648,0c-1.85795,0 -2.23706,-0.35156 -2.23706,-1.01434c0,-0.80999 1.24356,-1.12189 2.99731,-1.12189c1.54269,0 3,0.25947 4.68721,1.05064l1.29599,-1.82434c-1.84047,-1.11181 -3.66548,-1.51647 -5.96573,-1.51647c-3.5149,0 -5.61618,1.31885 -5.61618,3.53171c0,2.40847 1.9944,3.23057 4.56084,3.20637l2.38562,0c2.3473,0 2.65987,0.26821 2.65987,1.16357c0,0.88595 -1.29868,1.43648 -3.38853,1.43648c-1.83778,0 -3.72866,-0.36231 -5.38831,-1.47076c0,-0.00134 -1.31548,1.86803 -1.31548,1.86803c1.76317,1.40085 3.93503,1.88483 6.68901,1.88483c3.84294,0 6.0484,-1.39749 6.0484,-3.8342c-0.00067,-2.24042 -1.76518,-3.35963 -5.24648,-3.35963zm-36.03096,-4.32624c-0.50078,0 -0.99216,0.23056 -1.22877,0.61506l-6.39996,10.49699l2.87968,0l1.17163,-1.97222l7.15618,0l1.17163,1.97222l2.87968,0l-6.39996,-10.49699c-0.23728,-0.3845 -0.72799,-0.61506 -1.23012,-0.61506zm0.00134,3.11495c0.0847,0.14519 1.24356,2.09792 2.39705,4.03787l-4.79543,0s2.31235,-3.89268 2.39705,-4.03787l0.00134,0z"/>
   </g>
  </g>
 </g>

</svg>