<?xml version="1.0" standalone="no"?>
<!DOCTYPE svg PUBLIC "-//W3C//DTD SVG 20010904//EN"
 "http://www.w3.org/TR/2001/REC-SVG-20010904/DTD/svg10.dtd">
<svg version="1.0" xmlns="http://www.w3.org/2000/svg"
 width="265.000000pt" height="160.000000pt" viewBox="0 0 265.000000 160.000000"
 preserveAspectRatio="xMidYMid meet">

<g transform="translate(0.000000,160.000000) scale(0.100000,-0.100000)"
fill="#000000" stroke="none">
<path d="M222 1143 c3 -254 4 -270 25 -309 89 -166 336 -191 462 -48 71 81 86
217 37 319 -59 119 -165 161 -341 133 -19 -3 -20 3 -23 85 l-3 87 -80 0 -80 0
3 -267z m343 -37 c34 -37 45 -71 45 -145 0 -57 -35 -131 -70 -149 -28 -14 -86
-8 -105 11 -38 38 -49 70 -49 145 0 88 18 132 62 156 46 25 81 20 117 -18z"/>
<path d="M1360 1055 l0 -355 80 0 79 0 3 128 3 127 85 -125 86 -125 103 -3
103 -3 -20 28 c-11 15 -29 37 -39 48 -10 11 -53 62 -96 113 l-79 93 28 37 c16
20 46 56 67 79 23 25 36 47 31 54 -4 7 -3 9 3 6 6 -4 27 13 47 37 l35 44 -102
1 -102 1 -70 -109 c-38 -60 -73 -110 -77 -110 -5 -1 -8 87 -8 194 l0 195 -80
0 -80 0 0 -355z"/>
<path d="M985 1235 c-58 -22 -106 -65 -140 -126 -27 -49 -30 -63 -30 -144 0
-80 3 -96 28 -140 65 -118 225 -163 401 -114 l38 11 -6 45 c-8 60 -10 62 -53
52 -57 -13 -150 -11 -186 5 -37 15 -62 41 -71 74 l-7 22 174 0 c200 0 190 -5
181 93 -12 143 -91 226 -221 233 -44 2 -82 -2 -108 -11z m121 -95 c33 -12 48
-32 59 -78 l7 -32 -106 0 c-71 0 -106 4 -106 11 0 22 43 87 64 97 28 14 47 14
82 2z"/>
<path d="M2022 1231 c-109 -38 -175 -139 -175 -267 0 -58 5 -83 27 -127 102
-210 445 -185 511 37 18 60 19 144 3 198 -18 60 -89 133 -151 156 -69 25 -149
26 -215 3z m175 -128 c50 -62 52 -195 3 -263 -24 -34 -78 -47 -118 -28 -37 18
-72 90 -72 149 0 76 11 109 48 146 31 32 39 35 76 30 29 -4 48 -14 63 -34z"/>
<path d="M2190 604 c-47 -7 -202 -29 -345 -49 -409 -57 -1086 -153 -1240 -175
-77 -12 -195 -28 -262 -37 l-123 -17 0 -78 c0 -70 2 -78 19 -78 11 0 223 29
473 65 249 35 505 71 568 80 63 8 192 26 285 40 94 14 238 34 320 45 83 11
219 30 303 42 l152 22 0 78 0 78 -32 -1 c-18 -1 -71 -7 -118 -15z"/>
</g>
</svg>
