<?xml version="1.0" standalone="no"?>
<!DOCTYPE svg PUBLIC "-//W3C//DTD SVG 20010904//EN"
 "http://www.w3.org/TR/2001/REC-SVG-20010904/DTD/svg10.dtd">
<svg version="1.0" xmlns="http://www.w3.org/2000/svg"
 width="1047.000000pt" height="276.000000pt" viewBox="0 0 1047.000000 276.000000"
 preserveAspectRatio="xMidYMid meet">

<g transform="translate(0.000000,276.000000) scale(0.100000,-0.100000)"
fill="#000000" stroke="none">
<path d="M170 1380 l0 -1120 1135 0 1135 0 0 1120 0 1120 -1135 0 -1135 0 0
-1120z m1294 994 c29 -4 50 -13 54 -22 9 -25 -16 -173 -43 -252 -102 -299
-386 -549 -723 -637 -79 -20 -130 -26 -276 -30 l-179 -6 7 66 c16 160 92 343
201 489 148 197 365 334 605 383 70 14 277 19 354 9z m302 -100 c369 -180 596
-601 544 -1011 -39 -311 -212 -578 -481 -741 -57 -35 -178 -92 -194 -92 -3 0
-5 428 -5 951 l0 950 23 -6 c12 -4 63 -27 113 -51z m-1146 -954 c128 -16 224
-45 345 -105 291 -143 493 -399 544 -689 14 -79 14 -126 -1 -131 -34 -13 -207
-21 -290 -14 -438 38 -815 369 -902 791 -9 42 -16 95 -16 118 l0 40 118 0 c65
0 156 -5 202 -10z"/>
<path d="M3012 1508 c3 -438 3 -444 26 -493 30 -65 83 -118 146 -147 48 -22
65 -23 289 -26 l237 -3 0 90 0 90 -214 3 c-213 3 -215 3 -242 28 -42 39 -54
80 -54 182 l0 93 235 -3 235 -3 0 91 0 90 -235 0 -235 0 0 135 0 135 250 0
250 0 0 90 0 90 -345 0 -346 0 3 -442z"/>
<path d="M3850 1395 l0 -555 95 0 95 0 0 555 0 555 -95 0 -95 0 0 -555z"/>
<path d="M5990 1543 c0 -442 4 -482 54 -567 49 -84 150 -136 263 -136 l53 0 0
85 0 85 -39 6 c-53 9 -96 36 -118 76 -15 27 -19 63 -21 206 l-4 172 91 0 91 0
0 85 0 85 -90 0 -90 0 0 155 0 155 -95 0 -95 0 0 -407z"/>
<path d="M8050 1395 l0 -555 95 0 95 0 0 555 0 555 -95 0 -95 0 0 -555z"/>
<path d="M4535 1659 c-197 -25 -323 -148 -356 -348 -25 -150 20 -291 123 -386
88 -81 143 -100 303 -100 125 0 132 1 195 31 36 17 83 47 105 67 l40 36 -56
57 -57 57 -38 -31 c-144 -115 -373 -65 -419 92 -8 27 -15 51 -15 53 0 2 144 3
320 3 l320 0 0 63 c-1 263 -202 439 -465 406z m184 -192 c47 -31 81 -80 81
-117 l0 -25 -216 0 -215 0 5 29 c9 46 50 91 108 121 46 23 63 26 124 23 57 -3
79 -9 113 -31z"/>
<path d="M5440 1656 c-222 -48 -370 -263 -333 -482 32 -187 173 -324 367 -356
124 -21 266 19 354 98 l43 39 -59 59 -60 58 -34 -25 c-73 -56 -169 -72 -262
-45 -62 19 -130 91 -150 157 -20 68 -20 94 0 160 18 62 69 122 128 150 85 42
227 21 294 -42 l23 -22 60 62 59 61 -41 37 c-98 88 -245 123 -389 91z"/>
<path d="M6893 1650 c-61 -13 -117 -44 -152 -87 l-31 -38 0 58 0 57 -95 0 -95
0 0 -400 0 -400 95 0 95 0 0 223 c0 129 5 239 11 262 26 97 101 147 220 146
l69 0 0 88 c0 83 -1 89 -22 95 -27 7 -40 6 -95 -4z"/>
<path d="M7355 1647 c-167 -56 -276 -177 -306 -340 -52 -282 208 -535 503
-489 357 55 499 479 241 723 -29 27 -83 64 -120 81 -59 28 -79 32 -172 35 -70
2 -120 -2 -146 -10z m236 -181 c89 -42 143 -131 142 -231 -1 -144 -104 -247
-247 -247 -79 0 -139 25 -188 80 -118 131 -65 347 99 408 49 18 147 13 194
-10z"/>
<path d="M8390 1360 c0 -256 2 -284 20 -334 56 -149 210 -225 413 -204 125 12
226 81 276 187 26 56 26 58 29 344 l3 287 -95 0 -95 0 -3 -262 c-3 -242 -5
-266 -24 -303 -30 -59 -90 -88 -171 -82 -75 6 -117 32 -144 91 -17 37 -19 69
-19 299 l0 257 -95 0 -95 0 0 -280z"/>
<path d="M9257 1628 c71 -93 263 -360 263 -368 0 -5 -65 -100 -145 -210 -80
-110 -145 -202 -145 -205 0 -3 45 -5 99 -5 l100 0 102 140 102 141 31 -44 c17
-23 62 -87 101 -140 l69 -97 104 0 c82 0 102 3 95 13 -5 6 -74 101 -152 210
-98 136 -140 202 -133 210 57 74 262 357 262 361 0 3 -47 6 -104 6 -74 0 -105
-4 -109 -12 -3 -7 -41 -62 -85 -121 l-80 -108 -88 120 -88 121 -104 0 c-82 0
-102 -3 -95 -12z"/>
<path d="M3550 430 c0 -5 5 -10 10 -10 6 0 10 5 10 10 0 6 -4 10 -10 10 -5 0
-10 -4 -10 -10z"/>
</g>
</svg>
