<?xml version="1.0" encoding="utf-8"?>
<!-- Generator: Adobe Illustrator 19.0.0, SVG Export Plug-In . SVG Version: 6.00 Build 0)  -->
<svg version="1.1" id="layer" xmlns="http://www.w3.org/2000/svg" xmlns:xlink="http://www.w3.org/1999/xlink" x="0px" y="0px"
	 viewBox="-153 -46 652 652" style="enable-background:new -153 -46 652 652;" xml:space="preserve">
<path d="M-17.4,275.8c0-17.5,5.6-24.6,20-24.6c14.7,0,20.2,6.8,20.2,24.6c0,17.5-5.7,24.6-20.2,24.6
	C-12,300.4-17.4,293.6-17.4,275.8 M-36.6,275.8c0,26.5,13.2,40,39.3,40c26,0,39.2-13.5,39.2-40c0-26.7-13.2-40.1-39.2-40.1
	C-23.4,235.7-36.6,249.1-36.6,275.8 M219.8,275.8c0-17.5,5.6-24.6,20-24.6c14.7,0,20.2,6.8,20.2,24.6c0,17.5-5.7,24.6-20.2,24.6
	C225.2,300.4,219.8,293.6,219.8,275.8 M200.7,275.8c0,26.5,13.3,40,39.3,40c26,0,39.1-13.5,39.1-40c0-26.7-13.2-40.1-39.1-40.1
	C213.9,235.7,200.7,249.1,200.7,275.8 M419.7,219.1v72.7c0,14.8,8.9,22.7,25.9,22.7H462c4.2,0,6.1-3.8,6.1-7.4
	c0-3.6-1.9-7.4-6.1-7.4h-9.6c-8.7,0-13.3-0.5-13.3-10.9v-35.2h21.5c4.3,0,6.1-3.8,6.1-7.4c0-3.6-1.9-7.4-6.1-7.4l-21.5,0v-19.7
	c0-5-3.6-8-9.4-8C425,211.1,419.7,213.2,419.7,219.1 M56.4,219.1v72.7c0,14.8,9,22.7,26,22.7h16.5c4.2,0,6.1-3.8,6.1-7.4
	c0-3.6-1.9-7.4-6.1-7.4h-9.6c-8.8,0-13.3-0.5-13.3-10.9v-35.2h21.5c4.3,0,6.1-3.8,6.1-7.4c0-3.6-1.9-7.4-6.1-7.4H76v-19.7
	c0-5-3.5-8-9.4-8C61.8,211.1,56.4,213.2,56.4,219.1 M362.3,237.3c-22.4,0-31.9,8.8-31.9,29.6v39.4c0,4.9,3.6,7.9,9.8,7.9
	c6.1,0,9.8-2.9,9.8-7.8v-38c0-11.1,1.9-14.6,14-14.6h5.7c12.1,0,14.1,3.5,14.1,14.6v38c-0.1,4.9,3.6,7.9,9.7,7.9
	c6.1,0,9.7-2.9,9.7-7.8v-39.4c0-20.8-9.5-29.6-31.9-29.6L362.3,237.3L362.3,237.3z M293.7,245.6v60.2c0,6.2,5.1,8.4,9.9,8.4
	c4.8,0,9.8-2.2,9.8-8.4v-60.2c0-6.2-5-8.4-9.9-8.4C298.8,237.2,293.7,239.5,293.7,245.6 M292.4,216.2c0,6.1,4.9,11,11,11
	s11-4.9,11-11c0-6.1-4.9-11.1-11.1-11.1C297.4,205.1,292.4,210.1,292.4,216.2 M135.2,298.3v-43.8c4-0.9,9-1.3,13.7-1.3
	c15.4,0,21.6,5.7,21.6,21.9c0,18.2-5.2,24.5-21.9,24.5C144,299.6,138.6,299.2,135.2,298.3 M127.5,239.5c-7.6,1.7-11.8,6.4-11.8,14.7
	v83.4c0,5.9,5,8,9.7,8c4.7,0,9.7-2.1,9.7-8v-24.2c4.6,1,8.7,1.5,14.1,1.5c11.9,0,18.1-2,24.9-6c10-6,15.9-17.1,15.9-32.1
	c0-26.1-13.4-39.3-39.9-39.3C143,237.4,134.2,238,127.5,239.5 M-70.5,216.8v35.3h-41.8v-35.3c0-5-3.5-7.9-9.4-7.9
	c-4.6,0-10.1,2.1-10.1,7.9v89.4c0,5,3.6,8,9.5,8c4.7,0,10-2.1,10-8v-36.4h41.8v36.4c0,5,3.6,8,9.5,8c4.6,0,10-2.1,10-8v-89.4
	c0-5-3.6-7.9-9.5-7.9C-65.1,208.8-70.5,210.9-70.5,216.8"/>
</svg>
