<?xml version="1.0" standalone="no"?>
<!DOCTYPE svg PUBLIC "-//W3C//DTD SVG 20010904//EN"
 "http://www.w3.org/TR/2001/REC-SVG-20010904/DTD/svg10.dtd">
<svg version="1.0" xmlns="http://www.w3.org/2000/svg"
 width="800.000000pt" height="207.000000pt" viewBox="0 0 800.000000 207.000000"
 preserveAspectRatio="xMidYMid meet">

<g transform="translate(0.000000,207.000000) scale(0.100000,-0.100000)"
fill="#000000" stroke="none">
<path d="M224 1826 c-28 -13 -67 -43 -87 -67 -68 -79 -68 -73 -65 -765 3 -617
3 -619 25 -660 30 -56 79 -103 133 -128 44 -21 57 -21 670 -21 613 0 626 0
670 21 54 25 103 72 133 128 22 41 22 43 25 660 3 692 3 686 -65 765 -20 24
-59 54 -87 67 l-51 24 -625 0 -625 0 -51 -24z m777 -281 c25 -53 24 -102 -2
-145 -12 -19 -97 -143 -189 -275 -92 -132 -176 -256 -186 -275 -27 -51 -27
-190 1 -245 24 -50 88 -113 146 -144 64 -34 196 -41 261 -13 59 26 117 84 149
148 21 42 24 63 24 149 0 95 -2 103 -35 164 -41 76 -134 172 -207 213 -29 16
-53 34 -53 40 0 15 94 147 104 148 25 1 156 -90 222 -153 59 -55 83 -88 117
-155 41 -83 42 -88 41 -181 0 -110 -14 -150 -83 -241 -91 -121 -205 -180 -366
-188 -164 -8 -297 39 -413 143 -136 123 -164 286 -78 455 26 51 403 613 448
667 8 10 18 3 45 -30 20 -23 44 -60 54 -82z m-18 -728 c101 -158 109 -228 36
-312 -126 -144 -330 38 -236 211 38 70 122 203 128 204 3 0 36 -46 72 -103z"/>
<path d="M4294 1641 c-77 -47 -101 -122 -62 -198 28 -56 73 -83 138 -83 114 0
181 109 131 214 -37 76 -138 109 -207 67z"/>
<path d="M6163 1630 c-64 -39 -63 -25 -63 -605 0 -575 -1 -561 59 -604 21 -15
44 -21 82 -21 48 0 55 3 91 40 l38 41 0 535 c0 585 1 570 -59 613 -38 27 -105
28 -148 1z"/>
<path d="M2264 1266 c-108 -26 -185 -93 -227 -196 -20 -52 -22 -70 -22 -320 0
-290 1 -297 61 -337 34 -22 113 -21 147 1 51 34 57 65 57 290 0 222 6 258 51
290 35 24 101 21 126 -6 41 -45 43 -61 43 -280 0 -193 2 -216 20 -245 10 -18
31 -40 46 -49 34 -23 112 -22 147 0 51 34 57 65 57 290 0 222 6 258 51 290 35
24 101 21 126 -6 36 -41 38 -51 43 -285 l5 -232 30 -31 c77 -81 210 -44 231
64 3 19 4 144 2 277 l-3 244 -29 63 c-53 115 -156 180 -300 189 -100 7 -170
-11 -240 -61 l-49 -34 -52 34 c-93 62 -202 79 -321 50z"/>
<path d="M3640 1265 c-30 -9 -79 -30 -109 -48 -233 -140 -270 -499 -72 -698
31 -30 83 -68 116 -85 57 -28 66 -29 190 -29 127 0 132 1 202 34 110 51 145
99 123 166 -12 37 -51 65 -91 65 -12 0 -51 -14 -85 -31 -126 -61 -228 -48
-304 38 -22 25 -40 52 -40 59 0 10 55 13 258 16 226 3 260 5 283 21 40 27 51
61 43 131 -25 220 -168 362 -377 372 -54 3 -101 -1 -137 -11z m223 -205 c38
-26 90 -97 81 -111 -3 -5 -95 -9 -205 -9 -193 0 -199 1 -199 20 0 28 77 103
120 117 59 20 162 11 203 -17z"/>
<path d="M4303 1264 c-18 -9 -42 -31 -53 -49 -19 -31 -20 -49 -20 -370 0 -294
2 -341 17 -372 35 -75 141 -98 204 -46 57 49 59 61 59 415 0 288 -2 327 -18
358 -35 71 -118 99 -189 64z"/>
<path d="M4632 1260 c-18 -11 -37 -32 -42 -46 -6 -15 -10 -171 -10 -371 0
-380 3 -398 61 -428 37 -20 114 -19 144 1 55 36 59 53 65 274 5 170 9 211 23
238 23 42 68 70 127 78 85 11 124 26 157 59 28 28 33 40 33 83 0 119 -120 165
-280 109 -70 -25 -81 -25 -119 4 -33 26 -115 25 -159 -1z"/>
<path d="M5525 1267 c-218 -56 -352 -265 -316 -495 20 -133 74 -225 174 -299
76 -55 139 -74 253 -74 188 0 347 90 331 187 -14 84 -74 102 -177 55 -135 -62
-233 -51 -310 36 -22 25 -40 52 -40 59 0 11 45 14 245 14 267 0 298 5 331 55
35 54 -3 230 -70 318 -41 54 -112 107 -173 131 -62 23 -184 29 -248 13z m192
-198 c41 -20 103 -89 103 -116 0 -10 -43 -13 -205 -13 -159 0 -205 3 -205 13
0 29 52 86 102 111 66 33 143 35 205 5z"/>
<path d="M6790 1269 c-69 -13 -164 -64 -213 -114 -164 -166 -170 -453 -14
-622 77 -84 161 -127 272 -138 117 -13 269 30 339 96 34 31 41 43 41 78 0 48
-33 88 -80 97 -24 4 -48 -2 -96 -26 -73 -37 -164 -50 -222 -31 -38 13 -127
100 -127 126 0 13 32 15 253 15 234 0 254 1 285 20 47 29 56 60 43 150 -37
248 -241 396 -481 349z m158 -195 c43 -18 88 -58 108 -96 8 -15 14 -29 14 -33
0 -3 -92 -5 -205 -5 -146 0 -205 3 -205 11 0 7 9 27 21 45 48 79 176 116 267
78z"/>
<path d="M7581 1270 c-187 -40 -282 -214 -198 -363 32 -57 116 -113 214 -143
91 -28 129 -54 139 -96 4 -21 0 -33 -20 -52 -42 -43 -79 -35 -170 38 -33 26
-42 28 -93 24 -46 -4 -61 -10 -80 -32 -55 -64 -4 -166 107 -215 153 -67 330
-43 428 59 56 57 76 113 69 195 -9 113 -63 169 -226 235 -42 17 -91 38 -109
47 -54 27 -56 91 -3 113 33 13 66 2 89 -32 38 -53 140 -65 191 -23 38 32 45
56 32 98 -35 105 -220 178 -370 147z"/>
</g>
</svg>
