<svg width="130" height="84.00000000000001" xmlns="http://www.w3.org/2000/svg">
 <g id="Layer_1">
  <title>Layer 1</title>
  <g stroke="null">
   <g stroke="null" fill="#000000" transform="translate(0 207) scale(0.1 -0.1)">
    <path stroke="null" d="m32.36665,1789.38143c-4.55038,-2.11268 -10.88842,-6.98809 -14.1387,-10.88842c-11.05093,-12.83859 -11.05093,-11.8635 -10.56339,-124.32301c0.48754,-100.27098 0.48754,-100.59601 4.06284,-107.25907c4.87541,-9.10077 12.83859,-16.73892 21.61433,-20.80176c7.1506,-3.41279 9.26328,-3.41279 108.88421,-3.41279c99.62092,0 101.7336,0 108.88421,3.41279c8.77574,4.06284 16.73892,11.70099 21.61433,20.80176c3.5753,6.66306 3.5753,6.98809 4.06284,107.25907c0.48754,112.45951 0.48754,111.48443 -10.56339,124.32301c-3.25027,3.90033 -9.58831,8.77574 -14.1387,10.88842l-8.2882,3.90033l-101.57109,0l-101.57109,0l-8.2882,-3.90033zm126.27318,-45.66636c4.06284,-8.61323 3.90033,-16.5764 -0.32503,-23.56449c-1.95016,-3.08776 -15.76383,-23.23947 -30.7151,-44.69128c-14.95126,-21.45181 -28.60242,-41.60352 -30.22756,-44.69128c-4.38787,-8.2882 -4.38787,-30.87761 0.16251,-39.81587c3.90033,-8.12569 14.30121,-18.36405 23.72701,-23.40198c10.40088,-5.52547 31.85269,-6.66306 42.41609,-2.11268c9.58831,4.22536 19.01411,13.65115 24.21455,24.05203c3.41279,6.82558 3.90033,10.23837 3.90033,24.21455c0,15.43881 -0.32503,16.73892 -5.68798,26.65225c-6.66306,12.35104 -21.77684,27.95236 -33.64034,34.61543c-4.7129,2.60022 -8.61323,5.52547 -8.61323,6.50055c0,2.43771 15.27629,23.88952 16.90143,24.05203c4.06284,0.16251 25.35214,-14.62624 36.07805,-24.8646c9.58831,-8.93826 13.48864,-14.30121 19.01411,-25.18963c6.66306,-13.48864 6.82558,-14.30121 6.66306,-29.41499c0,-17.87651 -2.27519,-24.37706 -13.48864,-39.16581c-14.78875,-19.66416 -33.31532,-29.25247 -59.48003,-30.55258c-26.65225,-1.30011 -48.26658,6.33804 -67.11818,23.23947c-22.10187,19.98919 -26.65225,46.47893 -12.67607,73.94375c4.22536,8.2882 65.49304,99.62092 72.80616,108.39667c1.30011,1.62514 2.92525,0.48754 7.31312,-4.87541c3.25027,-3.73782 7.1506,-9.75082 8.77574,-13.32613zm-2.92525,-118.31001c16.41389,-25.67717 17.714,-37.05313 5.85049,-50.70429c-20.47673,-23.40198 -53.62954,6.17552 -38.35324,34.2904c6.17552,11.37596 19.82668,32.99029 20.80176,33.1528c0.48754,0 5.85049,-7.47563 11.70099,-16.73892z"/>
    <path stroke="null" d="m693.79758,1759.31638c-12.51356,-7.63815 -16.41389,-19.82668 -10.07585,-32.17772c4.55038,-9.10077 11.8635,-13.48864 22.4269,-13.48864c18.52657,0 29.41499,17.714 21.2893,34.77794c-6.01301,12.35104 -22.4269,17.714 -33.64034,10.88842z"/>
    <path stroke="null" d="m997.53577,1757.52873c-10.40088,-6.33804 -10.23837,-4.06284 -10.23837,-98.32081c0,-93.4454 -0.16251,-91.17021 9.58831,-98.1583c3.41279,-2.43771 7.1506,-3.41279 13.32613,-3.41279c7.80066,0 8.93826,0.48754 14.78875,6.50055l6.17552,6.66306l0,86.94485c0,95.07054 0.16251,92.63283 -9.58831,99.62092c-6.17552,4.38787 -17.06394,4.55038 -24.05203,0.16251z"/>
    <path stroke="null" d="m363.89469,1698.37373c-17.55148,-4.22536 -30.06504,-15.11378 -36.89062,-31.85269c-3.25027,-8.45071 -3.5753,-11.37596 -3.5753,-52.0044c0,-47.12899 0.16251,-48.26658 9.91334,-54.76713c5.52547,-3.5753 18.36405,-3.41279 23.88952,0.16251c8.2882,5.52547 9.26328,10.56339 9.26328,47.12899c0,36.07805 0.97508,41.92855 8.2882,47.12899c5.68798,3.90033 16.41389,3.41279 20.47673,-0.97508c6.66306,-7.31312 6.98809,-9.91334 6.98809,-45.50385c0,-31.36515 0.32503,-35.10297 3.25027,-39.81587c1.62514,-2.92525 5.03793,-6.50055 7.47563,-7.96317c5.52547,-3.73782 18.20154,-3.5753 23.88952,0c8.2882,5.52547 9.26328,10.56339 9.26328,47.12899c0,36.07805 0.97508,41.92855 8.2882,47.12899c5.68798,3.90033 16.41389,3.41279 20.47673,-0.97508c5.85049,-6.66306 6.17552,-8.2882 6.98809,-46.31642l0.81257,-37.70319l4.87541,-5.03793c12.51356,-13.16361 34.12789,-7.1506 37.54067,10.40088c0.48754,3.08776 0.65005,23.40198 0.32503,45.01631l-0.48754,39.65335l-4.7129,10.23837c-8.61323,18.68908 -25.35214,29.25247 -48.75412,30.7151c-16.25137,1.1376 -27.62734,-1.78765 -39.0033,-9.91334l-7.96317,-5.52547l-8.45071,5.52547c-15.11378,10.07585 -32.82778,12.83859 -52.16691,8.12569z"/>
    <path stroke="null" d="m587.5136,1698.21122c-4.87541,-1.46262 -12.83859,-4.87541 -17.714,-7.80066c-37.8657,-22.75192 -43.87871,-81.09436 -11.70099,-113.43459c5.03793,-4.87541 13.48864,-11.05093 18.85159,-13.81367c9.26328,-4.55038 10.72591,-4.7129 30.87761,-4.7129c20.63925,0 21.45181,0.16251 32.82778,5.52547c17.87651,8.2882 23.56449,16.08886 19.98919,26.97728c-1.95016,6.01301 -8.2882,10.56339 -14.78875,10.56339c-1.95016,0 -8.2882,-2.27519 -13.81367,-5.03793c-20.47673,-9.91334 -37.05313,-7.80066 -49.40418,6.17552c-3.5753,4.06284 -6.50055,8.45071 -6.50055,9.58831c0,1.62514 8.93826,2.11268 41.92855,2.60022c36.72811,0.48754 42.25357,0.81257 45.99139,3.41279c6.50055,4.38787 8.2882,9.91334 6.98809,21.2893c-4.06284,35.75302 -27.30231,58.82998 -61.26768,60.45511c-8.77574,0.48754 -16.41389,-0.16251 -22.26438,-1.78765zm36.24056,-33.31532c6.17552,-4.22536 14.62624,-15.76383 13.16361,-18.03903c-0.48754,-0.81257 -15.43881,-1.46262 -33.31532,-1.46262c-31.36515,0 -32.34023,0.16251 -32.34023,3.25027c0,4.55038 12.51356,16.73892 19.50165,19.01411c9.58831,3.25027 26.32723,1.78765 32.99029,-2.76273z"/>
    <path stroke="null" d="m695.26021,1698.0487c-2.92525,-1.46262 -6.82558,-5.03793 -8.61323,-7.96317c-3.08776,-5.03793 -3.25027,-7.96317 -3.25027,-60.13009c0,-47.77904 0.32503,-55.41719 2.76273,-60.45511c5.68798,-12.18853 22.91444,-15.92635 33.1528,-7.47563c9.26328,7.96317 9.58831,9.91334 9.58831,67.4432c0,46.80396 -0.32503,53.14199 -2.92525,58.17992c-5.68798,11.53848 -19.17662,16.08886 -30.7151,10.40088z"/>
    <path stroke="null" d="m748.72723,1697.39865c-2.92525,-1.78765 -6.01301,-5.20044 -6.82558,-7.47563c-0.97508,-2.43771 -1.62514,-27.78985 -1.62514,-60.2926c0,-61.75522 0.48754,-64.68047 9.91334,-69.55588c6.01301,-3.25027 18.52657,-3.08776 23.40198,0.16251c8.93826,5.85049 9.58831,8.61323 10.56339,44.52877c0.81257,27.62734 1.46262,34.2904 3.73782,38.67827c3.73782,6.82558 11.05093,11.37596 20.63925,12.67607c13.81367,1.78765 20.1517,4.22536 25.51466,9.58831c4.55038,4.55038 5.36295,6.50055 5.36295,13.48864c0,19.33914 -19.50165,26.81477 -45.50385,17.714c-11.37596,-4.06284 -13.16361,-4.06284 -19.33914,0.65005c-5.36295,4.22536 -18.68908,4.06284 -25.83969,-0.16251z"/>
    <path stroke="null" d="m893.852,1698.53624c-35.428,-9.10077 -57.20484,-43.06614 -51.35434,-80.4443c3.25027,-21.61433 12.02602,-36.56559 28.27739,-48.59161c12.35104,-8.93826 22.58941,-12.02602 41.11598,-12.02602c30.55258,0 56.39227,14.62624 53.79205,30.39007c-2.27519,13.65115 -12.02602,16.5764 -28.76493,8.93826c-21.93936,-10.07585 -37.8657,-8.2882 -50.37926,5.85049c-3.5753,4.06284 -6.50055,8.45071 -6.50055,9.58831c0,1.78765 7.31312,2.27519 39.81587,2.27519c43.39117,0 48.4291,0.81257 53.79205,8.93826c5.68798,8.77574 -0.48754,37.37816 -11.37596,51.67937c-6.66306,8.77574 -18.20154,17.38897 -28.11488,21.2893c-10.07585,3.73782 -29.90253,4.7129 -40.30341,2.11268zm31.20264,-32.17772c6.66306,-3.25027 16.73892,-14.46372 16.73892,-18.85159c0,-1.62514 -6.98809,-2.11268 -33.31532,-2.11268c-25.83969,0 -33.31532,0.48754 -33.31532,2.11268c0,4.7129 8.45071,13.97618 16.5764,18.03903c10.72591,5.36295 23.23947,5.68798 33.31532,0.81257z"/>
    <path stroke="null" d="m1099.43189,1698.86127c-11.21345,-2.11268 -26.65225,-10.40088 -34.61543,-18.52657c-26.65225,-26.97728 -27.62734,-73.61873 -2.27519,-101.08355c12.51356,-13.65115 26.16471,-20.63925 44.20374,-22.4269c19.01411,-2.11268 43.7162,4.87541 55.09216,15.60132c5.52547,5.03793 6.66306,6.98809 6.66306,12.67607c0,7.80066 -5.36295,14.30121 -13.0011,15.76383c-3.90033,0.65005 -7.80066,-0.32503 -15.60132,-4.22536c-11.8635,-6.01301 -26.65225,-8.12569 -36.07805,-5.03793c-6.17552,2.11268 -20.63925,16.25137 -20.63925,20.47673c0,2.11268 5.20044,2.43771 41.11598,2.43771c38.02822,0 41.27849,0.16251 46.31642,3.25027c7.63815,4.7129 9.10077,9.75082 6.98809,24.37706c-6.01301,40.30341 -39.16581,64.35544 -78.16911,56.7173zm25.67717,-31.69018c6.98809,-2.92525 14.30121,-9.4258 17.55148,-15.60132c1.30011,-2.43771 2.27519,-4.7129 2.27519,-5.36295c0,-0.48754 -14.95126,-0.81257 -33.31532,-0.81257c-23.72701,0 -33.31532,0.48754 -33.31532,1.78765c0,1.1376 1.46262,4.38787 3.41279,7.31312c7.80066,12.83859 28.60242,18.85159 43.39117,12.67607z"/>
    <path stroke="null" d="m1227.98026,1699.02379c-30.39007,-6.50055 -45.82888,-34.77794 -32.17772,-58.99249c5.20044,-9.26328 18.85159,-18.36405 34.77794,-23.23947c14.78875,-4.55038 20.96427,-8.77574 22.58941,-15.60132c0.65005,-3.41279 0,-5.36295 -3.25027,-8.45071c-6.82558,-6.98809 -12.83859,-5.68798 -27.62734,6.17552c-5.36295,4.22536 -6.82558,4.55038 -15.11378,3.90033c-7.47563,-0.65005 -9.91334,-1.62514 -13.0011,-5.20044c-8.93826,-10.40088 -0.65005,-26.97728 17.38897,-34.94045c24.8646,-10.88842 53.62954,-6.98809 69.55588,9.58831c9.10077,9.26328 12.35104,18.36405 11.21345,31.69018c-1.46262,18.36405 -10.23837,27.46482 -36.72811,38.19073c-6.82558,2.76273 -14.78875,6.17552 -17.714,7.63815c-8.77574,4.38787 -9.10077,14.78875 -0.48754,18.36405c5.36295,2.11268 10.72591,0.32503 14.46372,-5.20044c6.17552,-8.61323 22.75192,-10.56339 31.04012,-3.73782c6.17552,5.20044 7.31312,9.10077 5.20044,15.92635c-5.68798,17.06394 -35.75302,28.92745 -60.13009,23.88952z"/>
   </g>
  </g>
 </g>

</svg>