<?xml version="1.0" standalone="no"?>
<!DOCTYPE svg PUBLIC "-//W3C//DTD SVG 20010904//EN"
 "http://www.w3.org/TR/2001/REC-SVG-20010904/DTD/svg10.dtd">
<svg version="1.0" xmlns="http://www.w3.org/2000/svg"
 width="450.000000pt" height="250.000000pt" viewBox="0 0 450.000000 250.000000"
 preserveAspectRatio="xMidYMid meet">

<g transform="translate(0.000000,250.000000) scale(0.100000,-0.100000)"
fill="#000000" stroke="none">
<path d="M164 1657 c-3 -8 -4 -49 -2 -93 l3 -79 90 0 90 0 0 90 0 90 -88 3
c-67 2 -89 0 -93 -11z"/>
<path d="M404 1657 c-3 -8 -4 -49 -2 -93 l3 -79 117 -3 118 -3 2 -317 3 -317
120 0 120 0 3 318 2 317 200 0 200 0 2 -317 3 -318 415 0 415 0 0 95 0 95
-285 3 c-212 2 -286 5 -292 15 -9 14 -10 63 -2 94 6 23 8 23 243 25 l236 3 3
65 c2 35 0 75 -3 87 l-5 23 -234 0 -234 0 -6 23 c-8 31 -7 80 2 94 6 10 80 13
292 15 l285 3 0 90 0 90 -858 3 c-711 2 -858 0 -863 -11z"/>
<path d="M2217 1664 c-4 -4 -7 -191 -7 -416 l0 -409 123 3 122 3 5 160 5 160
45 3 46 3 180 -159 c100 -87 189 -162 198 -165 10 -4 116 -7 237 -7 l219 0 35
70 35 70 278 0 277 0 35 -68 36 -67 128 -3 c72 -1 134 2 139 7 6 6 -23 72 -78
178 -48 92 -91 173 -95 178 -4 6 -54 100 -110 210 -57 110 -111 212 -119 227
l-16 28 -192 0 -193 0 -23 -37 c-13 -21 -57 -101 -97 -178 -40 -77 -81 -153
-90 -170 -9 -16 -52 -96 -95 -177 -43 -82 -81 -148 -85 -148 -4 0 -59 42 -121
93 -63 50 -142 115 -176 142 -35 28 -63 57 -63 65 0 8 90 98 200 199 110 101
199 189 197 195 -4 12 -254 21 -294 11 -12 -3 -92 -73 -179 -155 l-157 -150
-53 0 -53 0 -3 153 -3 152 -116 3 c-63 1 -118 -1 -122 -4z m1615 -316 c46 -90
84 -169 86 -175 3 -10 -38 -13 -177 -13 -129 0 -181 3 -181 11 0 7 31 71 69
143 38 72 76 146 85 164 9 17 21 32 26 32 6 0 47 -73 92 -162z"/>
</g>
</svg>
