<svg width="130" height="84" xmlns="http://www.w3.org/2000/svg" stroke="null" style="vector-effect: non-scaling-stroke;" preserveAspectRatio="xMidYMid meet" version="1.0">
 <g id="Layer_1">
  <title>Layer 1</title>
  <g stroke="null">
   <g stroke="null" fill="#000000" transform="translate(0 250) scale(0.1 -0.1)">
    <path stroke="null" d="m0.87709,-961.23729c-0.8654,-0.76144 -1.15387,-4.66384 -0.57694,-8.85177l0.8654,-7.51925l25.96214,0l25.96214,0l0,8.56623l0,8.56623l-25.38521,0.28554c-19.32737,0.19036 -25.67368,0 -26.82755,-1.04698z"/>
    <path stroke="null" d="m70.10947,-961.23729c-0.8654,-0.76144 -1.15387,-4.66384 -0.57694,-8.85177l0.8654,-7.51925l33.75079,-0.28554l34.03925,-0.28554l0.57694,-30.17217l0.8654,-30.17217l34.61619,0l34.61619,0l0.8654,30.26735l0.57694,30.17217l57.69365,0l57.69365,0l0.57694,-30.17217l0.8654,-30.26735l119.71433,0l119.71433,0l0,9.04213l0,9.04213l-82.21345,0.28554c-61.15527,0.19036 -82.50192,0.4759 -84.23273,1.42771c-2.59621,1.33252 -2.88468,5.99636 -0.57694,8.94695c1.73081,2.18915 2.30775,2.18915 70.09779,2.37951l68.07851,0.28554l0.8654,6.18672c0.57694,3.33131 0,7.13853 -0.8654,8.28069l-1.44234,2.18915l-67.50157,0l-67.50157,0l-1.73081,2.18915c-2.30775,2.95059 -2.01928,7.61443 0.57694,8.94695c1.73081,0.9518 23.07746,1.23734 84.23273,1.42771l82.21345,0.28554l0,8.56623l0,8.56623l-247.50577,0.28554c-205.10093,0.19036 -247.50577,0 -248.94811,-1.04698z"/>
    <path stroke="null" d="m593.10243,-960.57103c-1.15387,-0.38072 -2.01928,-18.17945 -2.01928,-39.59502l0,-38.92876l35.4816,0.28554l35.19313,0.28554l1.44234,15.22886l1.44234,15.22886l12.98107,0.28554l13.26954,0.28554l51.92429,-15.13367c28.84683,-8.28069 54.5205,-15.41922 57.11672,-15.70476c2.88468,-0.38072 33.46232,-0.66626 68.36698,-0.66626l63.17455,0l10.09639,6.66262l10.09639,6.66262l80.19418,0l79.90571,0l10.09639,-6.47226l10.38486,-6.37708l36.92394,-0.28554c20.76971,-0.09518 38.65475,0.19036 40.09709,0.66626c1.73081,0.57108 -6.63477,6.85298 -22.50052,16.9421c-13.84648,8.75659 -26.25061,16.4662 -27.40448,16.9421c-1.15387,0.57108 -15.57729,9.51803 -31.73151,19.98787c-16.44269,10.46984 -32.01998,20.17823 -34.32772,21.60594l-4.61549,2.66505l-55.38591,0l-55.67437,0l-6.63477,-3.52167c-3.75009,-1.99879 -16.44269,-9.61321 -27.98142,-16.9421c-11.53873,-7.32889 -23.36593,-14.56259 -25.96214,-16.18066c-2.59621,-1.52289 -15.00035,-9.13731 -27.40448,-16.84692c-12.40414,-7.80479 -23.36593,-14.08669 -24.5198,-14.08669c-1.15387,0 -17.01963,3.99757 -34.90466,8.85177c-18.1735,4.75902 -40.96249,10.94574 -50.77041,13.51561c-10.09639,2.66505 -18.1735,5.42528 -18.1735,6.18672c0,0.76144 25.96214,9.32767 57.69365,18.94089c31.73151,9.61321 57.40518,17.98909 56.82825,18.56017c-1.15387,1.14216 -73.27094,1.99879 -84.80967,1.04698c-3.46162,-0.28554 -26.53908,-6.94817 -51.63582,-14.75295l-45.28952,-14.27705l-15.28882,0l-15.28882,0l-0.8654,14.56259l-0.8654,14.46741l-33.46232,0.28554c-18.1735,0.09518 -34.03925,-0.09518 -35.19313,-0.38072zm465.87624,-30.07699c13.26954,-8.56623 24.23133,-16.08548 24.80827,-16.65656c0.8654,-0.9518 -10.96179,-1.23734 -51.05888,-1.23734c-37.21241,0 -52.21276,0.28554 -52.21276,1.04698c0,0.66626 8.94252,6.7578 19.90431,13.61079c10.96179,6.85298 21.92359,13.89633 24.5198,15.60958c2.59621,1.61807 6.05783,3.04577 7.50017,3.04577c1.73081,0 13.55801,-6.94817 26.53908,-15.41922z"/>
   </g>
  </g>
  <g stroke="null">
   <g stroke="null" fill="#000000" transform="translate(0 250) scale(0.1 -0.1)">
    <path stroke="null" d="m2.44551,2229.2631c-0.92681,-2.47149 -1.23574,-15.13786 -0.61787,-28.73104l0.92681,-24.40594l27.80423,0l27.80423,0l0,27.80423l0,27.80423l-27.18636,0.92681c-20.69871,0.61787 -27.4953,0 -28.73104,-3.3983z"/>
    <path stroke="null" d="m76.59013,2229.2631c-0.92681,-2.47149 -1.23574,-15.13786 -0.61787,-28.73104l0.92681,-24.40594l36.1455,-0.92681l36.45444,-0.92681l0.61787,-97.93269l0.92681,-97.93269l37.07231,0l37.07231,0l0.92681,98.24163l0.61787,97.93269l61.78719,0l61.78719,0l0.61787,-97.93269l0.92681,-98.24163l128.20841,0l128.20841,0l0,29.34891l0,29.34891l-88.04674,0.92681c-65.49442,0.61787 -88.35568,1.54468 -90.20929,4.63404c-2.78042,4.3251 -3.08936,19.46296 -0.61787,29.03998c1.85362,7.10553 2.47149,7.10553 75.07143,7.7234l72.90888,0.92681l0.92681,20.08084c0.61787,10.81276 0,23.1702 -0.92681,26.87743l-1.54468,7.10553l-72.29101,0l-72.29101,0l-1.85362,7.10553c-2.47149,9.57701 -2.16255,24.71488 0.61787,29.03998c1.85362,3.08936 24.71488,4.01617 90.20929,4.63404l88.04674,0.92681l0,27.80423l0,27.80423l-265.06703,0.92681c-219.65345,0.61787 -265.06703,0 -266.61171,-3.3983z"/>
    <path stroke="null" d="m636.69099,2231.42565c-1.23574,-1.23574 -2.16255,-59.00676 -2.16255,-128.51735l0,-126.3548l37.99912,0.92681l37.69018,0.92681l1.54468,49.42975l1.54468,49.42975l13.90212,0.92681l14.21105,0.92681l55.60847,-49.12081c30.89359,-26.87743 58.38889,-50.04762 61.16932,-50.97443c3.08936,-1.23574 35.83657,-2.16255 73.21782,-2.16255l67.65697,0l10.81276,21.62552l10.81276,21.62552l85.88419,0l85.57525,0l10.81276,-21.00764l11.12169,-20.69871l39.5438,-0.92681c22.24339,-0.30894 41.39742,0.61787 42.9421,2.16255c1.85362,1.85362 -7.10553,22.24339 -24.097,54.9906c-14.82893,28.42211 -28.11317,53.44592 -29.34891,54.9906c-1.23574,1.85362 -16.68254,30.89359 -33.98295,64.87655c-17.60935,33.98295 -34.29189,65.49442 -36.76338,70.12846l-4.94298,8.65021l-59.3157,0l-59.62464,0l-7.10553,-11.43063c-4.01617,-6.48765 -17.60935,-31.20253 -29.96679,-54.9906c-12.35744,-23.78807 -25.02381,-47.2672 -27.80423,-52.51911c-2.78042,-4.94298 -16.06467,-29.65785 -29.34891,-54.68166c-13.28425,-25.33275 -25.02381,-45.72252 -26.25955,-45.72252c-1.23574,0 -18.22722,12.97531 -37.38125,28.73104c-19.46296,15.4468 -43.8689,35.52763 -54.37273,43.8689c-10.81276,8.65021 -19.46296,17.60935 -19.46296,20.08084c0,2.47149 27.80423,30.27572 61.78719,61.47825c33.98295,31.20253 61.47825,58.38889 60.86038,60.24251c-1.23574,3.70723 -78.46973,6.48765 -90.82717,3.3983c-3.70723,-0.92681 -28.42211,-22.55232 -55.29953,-47.88507l-48.50294,-46.34039l-16.3736,0l-16.3736,0l-0.92681,47.2672l-0.92681,46.95826l-35.83657,0.92681c-19.46296,0.30894 -36.45444,-0.30894 -37.69018,-1.23574zm498.93154,-97.62376c14.21105,-27.80423 25.95062,-52.21017 26.56849,-54.06379c0.92681,-3.08936 -11.73957,-4.01617 -54.68166,-4.01617c-39.85274,0 -55.9174,0.92681 -55.9174,3.3983c0,2.16255 9.57701,21.93445 21.31658,44.17784c11.73957,22.24339 23.47913,45.10465 26.25955,50.66549c2.78042,5.25191 6.48765,9.88595 8.03233,9.88595c1.85362,0 14.51999,-22.55232 28.42211,-50.04762z"/>
   </g>
  </g>
 </g>

</svg>