<?xml version="1.0" encoding="UTF-8" standalone="no"?>
<svg
   xmlns:dc="http://purl.org/dc/elements/1.1/"
   xmlns:cc="http://creativecommons.org/ns#"
   xmlns:rdf="http://www.w3.org/1999/02/22-rdf-syntax-ns#"
   xmlns:svg="http://www.w3.org/2000/svg"
   xmlns="http://www.w3.org/2000/svg"
   viewBox="0 0 1680 559.56"
   height="559.56"
   width="1680"
   xml:space="preserve"
   id="svg2"
   version="1.1"><metadata
     id="metadata8"><rdf:RDF><cc:Work
         rdf:about=""><dc:format>image/svg+xml</dc:format><dc:type
           rdf:resource="http://purl.org/dc/dcmitype/StillImage" /></cc:Work></rdf:RDF></metadata><defs
     id="defs6" /><g
     transform="matrix(1.3333333,0,0,-1.3333333,0,559.56)"
     id="g10"><g
       transform="scale(0.1)"
       id="g12"><path
         id="path14"
         style="fill:#231f20;fill-opacity:1;fill-rule:nonzero;stroke:none"
         d="m 8599.97,631.961 c -24.08,-4.652 -66.52,-12.621 -104.29,-12.621 -129.44,0 -202.76,54.43 -202.76,202.762 0,154.058 97.4,208.488 219.95,208.488 37.77,0 63.02,-6.9 82.44,-12.62 v -72.779 c -14.32,4.028 -54.34,10.918 -84.14,10.918 -71.08,0 -127.21,-10.918 -127.21,-131.148 0,-118.609 58.46,-131.762 122.64,-131.762 34.37,0 62.4,6.891 93.37,13.153 v -74.391" /><path
         id="path16"
         style="fill:#231f20;fill-opacity:1;fill-rule:nonzero;stroke:none"
         d="m 8964.31,825.5 c 0,106.531 -34.92,139.199 -91.67,139.199 -57.83,0 -92.74,-38.398 -94.53,-139.199 -1.7,-100.801 35,-139.738 92.83,-139.738 57.3,0 93.37,33.218 93.37,139.738 z m -277.24,-0.539 c 0,152.371 73.85,205.629 185.03,205.629 111.1,0 183.25,-56.758 183.25,-205.629 0,-148.332 -72.69,-205.621 -184.41,-205.621 -111.09,0 -183.87,55.512 -183.87,205.621" /><path
         id="path18"
         style="fill:#231f20;fill-opacity:1;fill-rule:nonzero;stroke:none"
         d="m 9279.41,832.391 c 42.43,0 80.21,12.629 80.21,63.558 0,50.403 -29.72,58.992 -79.04,58.992 h -28.03 v -122.55 z m -113.33,192.469 h 111.09 c 122.55,0 172.95,-32.68 172.95,-125.411 0,-75.648 -38.93,-95.699 -84.77,-109.488 v -6.801 l 12.09,-2.328 c 41.79,-15.492 66.42,-95.07 92.2,-144.934 V 625.07 h -95.7 c -18.89,53.262 -38.94,134.012 -79.04,145.469 h -42.35 V 625.07 h -86.47 v 399.79" /><path
         id="path20"
         style="fill:#231f20;fill-opacity:1;fill-rule:nonzero;stroke:none"
         d="m 9658.16,823.801 h 31.51 c 50.4,0 75.56,16.031 75.56,65.879 0,50.402 -25.16,64.73 -71.52,64.73 h -35.55 z m -86.47,201.059 h 108.85 c 117.99,0 175.19,-26.95 175.19,-129.45 0,-102.59 -68.12,-132.301 -154.06,-132.301 h -43.51 V 625.07 h -86.47 v 399.79" /><path
         id="path22"
         style="fill:#231f20;fill-opacity:1;fill-rule:nonzero;stroke:none"
         d="m 10207.5,825.5 c 0,106.531 -34.9,139.199 -91.6,139.199 -57.9,0 -92.8,-38.398 -94.6,-139.199 -1.7,-100.801 35,-139.738 92.9,-139.738 57.3,0 93.3,33.218 93.3,139.738 z m -277.2,-0.539 c 0,152.371 73.9,205.629 185,205.629 111.1,0 183.3,-56.758 183.3,-205.629 0,-148.332 -72.7,-205.621 -184.4,-205.621 -111.1,0 -183.9,55.512 -183.9,205.621" /><path
         id="path24"
         style="fill:#231f20;fill-opacity:1;fill-rule:nonzero;stroke:none"
         d="m 10522.6,832.391 c 42.5,0 80.2,12.629 80.2,63.558 0,50.403 -29.7,58.992 -79,58.992 h -28 v -122.55 z m -113.3,192.469 h 111.1 c 122.6,0 173,-32.68 173,-125.411 0,-75.648 -39,-95.699 -84.8,-109.488 v -6.801 l 12.1,-2.328 c 41.8,-15.492 66.4,-95.07 92.2,-144.934 V 625.07 h -95.7 c -18.9,53.262 -39,134.012 -79.1,145.469 h -42.3 V 625.07 h -86.5 v 399.79" /><path
         id="path26"
         style="fill:#231f20;fill-opacity:1;fill-rule:nonzero;stroke:none"
         d="m 11013.1,772.242 -40.1,138.039 -4.6,22.371 h -5.7 l -4.6,-22.371 -41.8,-138.039 z m -232,-138.043 142.7,393.521 h 84.7 L 11158,634.199 v -9.129 h -95.7 l -33.2,89.34 h -125.4 l -29.3,-89.34 h -93.3 v 9.129" /><path
         id="path28"
         style="fill:#231f20;fill-opacity:1;fill-rule:nonzero;stroke:none"
         d="m 11305.3,956.109 -112.3,-2.867 v 71.618 h 311.7 v -71.618 l -112.9,2.867 V 625.07 h -86.5 v 331.039" /><path
         id="path30"
         style="fill:#231f20;fill-opacity:1;fill-rule:nonzero;stroke:none"
         d="m 11596.4,625.07 v 399.79 h 86.5 V 625.07 h -86.5" /><path
         id="path32"
         style="fill:#231f20;fill-opacity:1;fill-rule:nonzero;stroke:none"
         d="m 12062.6,825.5 c 0,106.531 -34.9,139.199 -91.6,139.199 -57.8,0 -92.8,-38.398 -94.5,-139.199 -1.7,-100.801 34.9,-139.738 92.8,-139.738 57.2,0 93.3,33.218 93.3,139.738 z m -277.1,-0.539 c 0,152.371 73.8,205.629 184.9,205.629 111.1,0 183.3,-56.758 183.3,-205.629 0,-148.332 -72.7,-205.621 -184.4,-205.621 -111.1,0 -183.8,55.512 -183.8,205.621" /><path
         id="path34"
         style="fill:#231f20;fill-opacity:1;fill-rule:nonzero;stroke:none"
         d="m 12264.4,1024.86 h 75.5 l 147.8,-210.188 20.6,-34.383 h 5.2 v 244.571 h 86.5 V 625.07 h -73.9 l -151.8,218.239 -17.2,29.191 h -6.2 V 625.07 h -86.5 v 399.79" /><path
         id="path36"
         style="fill:#231f20;fill-opacity:1;fill-rule:nonzero;stroke:none"
         d="M 2971.28,3742.3 2323.44,1374.72 H 1946.98 L 1489.05,3094.45 1024.36,1374.72 H 647.844 L 0,3742.3 H 373.109 L 834.398,2022.56 1299.09,3742.3 h 369.7 l 468.1,-1719.74 461.33,1719.74 h 373.06" /><path
         id="path38"
         style="fill:#231f20;fill-opacity:1;fill-rule:nonzero;stroke:none"
         d="m 3144.01,3735.49 373.11,30.53 v -579.99 l -6.8,-217.08 h 13.61 c 172.95,64.45 312.06,94.98 481.65,94.98 301.9,0 505.38,-135.72 505.38,-654.63 V 1374.72 h -373.11 v 1004.06 c 0,312.03 -152.64,352.72 -325.58,352.72 -108.59,0 -200.17,-23.76 -295.15,-50.89 V 1374.72 h -373.11 v 2360.77" /><path
         id="path40"
         style="fill:#231f20;fill-opacity:1;fill-rule:nonzero;stroke:none"
         d="m 4836.44,3040.16 h 373.12 V 1374.72 H 4836.44 Z M 5023,3711.77 c 193.36,0 223.88,-111.94 223.88,-237.45 0,-125.5 -40.72,-240.85 -223.88,-240.85 -183.15,0 -220.49,115.35 -220.49,240.85 0,125.51 33.93,237.45 220.49,237.45" /><path
         id="path42"
         style="fill:#231f20;fill-opacity:1;fill-rule:nonzero;stroke:none"
         d="m 5524.93,3040.16 h 254.41 l 50.89,-135.67 H 5854 c 98.33,84.78 254.32,159.44 457.88,159.44 23.72,0 50.85,0 77.98,-3.41 v -366.3 c -67.78,10.11 -139.03,20.31 -210.28,20.31 -101.79,0 -183.16,-23.72 -281.54,-67.83 V 1374.72 h -373.11 v 1665.44" /><path
         id="path44"
         style="fill:#231f20;fill-opacity:1;fill-rule:nonzero;stroke:none"
         d="m 6549.19,1374.72 v 2360.77 l 373.12,30.53 v -2391.3 h -373.12" /><path
         id="path46"
         style="fill:#231f20;fill-opacity:1;fill-rule:nonzero;stroke:none"
         d="m 9927.34,2199.03 c 0,315.37 -50.93,573.16 -349.39,573.16 -301.85,0 -376.51,-247.59 -376.51,-573.16 0,-301.88 61.06,-563.1 359.59,-563.1 298.46,0 366.31,247.61 366.31,563.1 z m -352.78,864.9 c 529.14,0 732.74,-312.06 732.74,-864.9 0,-518.96 -190,-858.24 -739.55,-858.24 -549.46,0 -742.82,339.28 -742.82,858.24 0,552.84 220.48,864.9 749.63,864.9" /><path
         id="path48"
         style="fill:#231f20;fill-opacity:1;fill-rule:nonzero;stroke:none"
         d="m 11600.3,2199.03 c 0,315.37 -50.9,573.16 -349.3,573.16 -301.9,0 -376.6,-247.59 -376.6,-573.16 0,-301.88 61.1,-563.1 359.6,-563.1 298.5,0 366.3,247.61 366.3,563.1 z m -352.7,864.9 c 529.1,0 732.7,-312.06 732.7,-864.9 0,-518.96 -190,-858.24 -739.5,-858.24 -549.5,0 -742.9,339.28 -742.9,858.24 0,552.84 220.5,864.9 749.7,864.9" /><path
         id="path50"
         style="fill:#231f20;fill-opacity:1;fill-rule:nonzero;stroke:none"
         d="m 12221.8,1374.72 v 2360.77 l 373.1,30.53 v -2391.3 h -373.1" /><path
         id="path52"
         style="fill:#231f20;fill-opacity:1;fill-rule:nonzero;stroke:none"
         d="m 7600.68,1683.38 c 105.1,-3.31 162.83,-6.72 271.33,-6.72 230.59,0 383.32,122.11 383.32,607.2 0,332.38 -135.72,420.47 -379.92,420.47 -94.99,0 -183.16,-16.83 -274.73,-47.44 z m -373.12,1356.83 h 281.54 l 30.52,-122.11 c 112,61.05 318.77,145.83 505.42,145.83 339.1,0 586.71,-247.61 586.71,-841.12 0,-583.48 -261.22,-871.81 -695.29,-871.81 -159.79,0 -335.78,33.92 -335.78,33.92 V 621.781 l -373.12,-40.73 V 3040.21" /><path
         id="path54"
         style="fill:#edac09;fill-opacity:1;fill-rule:nonzero;stroke:none"
         d="m 9074.68,4063.49 c -279.02,323.29 -1164.36,39.12 -2152.37,-644.69 v -172.32 c 870.12,618.5 1637.15,903.88 1856.83,649.34 C 9053.42,3578.01 8371.12,2538.48 7254.96,1575.24 6138.71,611.941 5011.07,89.6406 4736.83,407.469 4594.39,572.551 4710.54,932.281 5011.07,1374.72 H 4836.38 C 4464.25,819.77 4324.76,353.52 4515.82,132.121 4864.13,-271.52 6167,280.699 7425.58,1366.75 8684.03,2452.8 9422.95,3659.88 9074.68,4063.49" /></g></g></svg>