<?xml version="1.0" encoding="utf-8"?>
<!-- Generator: Adobe Illustrator 19.0.0, SVG Export Plug-In . SVG Version: 6.00 Build 0)  -->
<svg version="1.1" id="Layer_1" xmlns="http://www.w3.org/2000/svg" xmlns:xlink="http://www.w3.org/1999/xlink" x="0px" y="0px"
	 viewBox="0 0 500 500" style="enable-background:new 0 0 500 500;" xml:space="preserve">
<style type="text/css">
	.st0{fill:#F7DC1F;}
	.st1{fill:#0FB053;}
	.st2{fill:#FEFFFF;}
	.st3{fill:#D12A32;}
</style>
<g id="XMLID_1_">
	<rect id="XMLID_3_" x="67.5" y="184.5" class="st0" width="365" height="131"/>
	<polygon id="XMLID_4_" points="71.2,279.9 71.2,264.5 99,203.1 71.2,203.1 71.2,188.3 121.5,188.3 121.5,203.1 94.1,264.6 
		122,264.6 122,279.9 	"/>
	<path id="XMLID_7_" d="M125.2,279.9l6-91.6h36.3l8.4,91.6h-19.9l-0.8-9.3h-10.6l-0.8,9.3H125.2z M146.4,255.3h7.1l-2.4-41h-2.5
		L146.4,255.3z"/>
	<polygon id="XMLID_8_" points="181.2,279.9 181.2,188.3 200.3,188.3 211.6,224.5 211.6,188.3 232.1,188.3 232.1,279.9 212.2,279.9 
		201.7,246.4 201.7,279.9 	"/>
	<path id="XMLID_9_" d="M239.3,188.3h20.4v73.5c0,0,0.2,5,5.2,5c5.6,0,5.8-5.1,5.8-5.1v-73.4h19.7v73.3c0,0,1.1,20.5-26.1,20.5
		c-25,0-25-22.2-25-22.2V188.3z"/>
	<rect id="XMLID_10_" x="407.4" y="188.3" width="21.4" height="91.6"/>
	<path id="XMLID_11_" d="M346.9,207.9v8.3h-20.9v-9.5c0-2.5-0.4-4.9-1.1-5.9c-0.7-1-2.1-1.5-3.9-1.5c-1.8,0-3.1,0.5-3.8,1.5
		c-0.7,1-1.7,3.4-1.7,5.9v6c1.2,9.2,19.1,13.1,28.1,23.9c5.3,6.4,4.8,14.1,4.8,17.1v5.7c0,7.2-3,12.7-7.6,16.5
		c-4.7,3.9-11.3,5.8-19.9,5.8c-8.8,0-13.9-1.8-17.8-5.4c-3.9-3.6-7.1-9.6-7.1-17.9v-8.1h20.2v9.1c0,2.9,0.4,4.9,1.3,6.1
		c0.9,1.2,1.7,1.8,3.9,1.8c2.1,0,3.6-0.6,4.4-1.7c0.8-1.1,1.3-3.2,1.3-6.2v-3.6c0-2.6-0.6-4.9-1.8-6.8c-1.2-1.9-18.6-12.2-18.6-12.2
		c-4-2.8-6.8-5.8-8.5-9.1c-1.7-3.2-2.6-8.3-2.6-12.8v-8.1c0-6.2,3-11.3,7.7-15.1c4.7-3.8,9.2-5.1,17.1-5.1c7.5,0,15.7,1.2,19.5,4.9
		C343.7,195.2,346.9,200.7,346.9,207.9z"/>
	<path id="XMLID_12_" d="M402.8,207.9v8.3h-20.9v-9.5c0-2.5-0.4-4.9-1.1-5.9c-0.7-1-2.1-1.5-3.9-1.5c-1.8,0-3.1,0.5-3.8,1.5
		c-0.7,1-1.7,3.4-1.7,5.9v6c1.2,9.2,19.1,13.1,28.1,23.9c5.3,6.4,4.8,14.1,4.8,17.1v5.7c0,7.2-3,12.7-7.6,16.5
		c-4.7,3.9-11.3,5.8-19.9,5.8c-8.8,0-13.9-1.8-17.8-5.4c-3.9-3.6-7.1-9.6-7.1-17.9v-8.1H372v9.1c0,2.9,0.4,4.9,1.3,6.1
		c0.9,1.2,1.7,1.8,3.9,1.8c2.1,0,3.6-0.6,4.4-1.7c0.8-1.1,1.3-3.2,1.3-6.2v-3.6c0-2.6-0.6-4.9-1.8-6.8c-1.2-1.9-18.6-12.2-18.6-12.2
		c-4-2.8-6.8-5.8-8.5-9.1c-1.7-3.2-2.6-8.3-2.6-12.8v-8.1c0-6.2,3-11.3,7.7-15.1c4.7-3.8,9.2-5.1,17.1-5.1c7.5,0,15.7,1.2,19.5,4.9
		C399.6,195.2,402.8,200.7,402.8,207.9z"/>
	<rect id="XMLID_13_" x="71" y="304.5" class="st1" width="120" height="9.5"/>
	<rect id="XMLID_14_" x="191" y="304.5" class="st2" width="119" height="9.5"/>
	<rect id="XMLID_15_" x="310" y="304.5" class="st3" width="119" height="9.5"/>
</g>
</svg>
