<svg width="130" height="84" xmlns="http://www.w3.org/2000/svg" stroke="null" style="vector-effect: non-scaling-stroke;" preserveAspectRatio="xMidYMid meet" version="1.0">
 <g id="Layer_1">
  <title>Layer 1</title>
  <g stroke="null">
   <g stroke="null" fill="white" transform="translate(0 137) scale(0.1 -0.1)">
    <path stroke="null" d="m1103.3203,1102.78155c-50.59251,-16.68477 -86.65314,-52.74539 -100.64681,-100.10859c-5.38218,-17.49209 -5.9204,-60.54955 -1.34555,-79.92541c12.37902,-51.66895 52.74539,-90.95888 107.37454,-104.68345c23.14338,-5.9204 73.46679,-3.76753 102.26147,4.30575c26.10358,7.26595 74.27412,30.94755 79.92541,39.28993c3.76753,5.9204 3.76753,6.99684 -0.26911,13.18635c-2.42198,3.76753 -5.65129,6.72773 -6.99684,6.72773c-1.61465,0 -2.69109,12.37902 -2.69109,30.40933l0,30.14022l8.07327,4.57486c9.41882,5.38218 10.76436,15.07011 3.22931,21.79784c-4.30575,4.03664 -12.37902,4.57486 -54.89826,4.57486c-27.71824,0 -52.20717,-0.80733 -54.62915,-1.61465c-11.03347,-4.30575 -9.68793,-25.83448 1.88376,-29.33289c4.30575,-1.61465 4.84396,-5.11307 4.84396,-38.4826c0,-20.18318 -1.07644,-38.21349 -2.15287,-40.09726c-2.9602,-4.57486 -15.60833,-8.8806 -25.83448,-8.8806c-12.10991,0 -34.71508,11.8408 -44.94122,23.6816c-13.45546,15.33922 -23.6816,39.55904 -25.83448,62.43332c-5.38218,52.47628 9.41882,94.18819 41.98102,117.06247c23.95071,16.68477 59.20401,7.80416 91.22799,-22.87428c14.801,-14.53189 21.79784,-16.41566 30.40933,-7.80416c4.30575,4.30575 5.11307,7.26595 3.49842,13.99367c-5.9204,28.25646 -25.02715,61.8951 -35.5224,63.24064c-3.49842,0.53822 -8.8806,-0.80733 -12.37902,-2.9602c-5.38218,-3.49842 -8.34238,-3.49842 -23.41249,-0.26911c-30.14022,6.45862 -66.20084,7.26595 -83.15472,1.61465z"/>
    <path stroke="null" d="m-0.02709,961.49926c0,-77.50343 0.53822,-141.5514 1.07644,-142.08961c0.53822,-0.53822 64.8553,-0.80733 142.62783,-0.26911l141.5514,0.53822l-0.53822,140.74407l-0.80733,140.47496l-141.82051,0.80733l-142.08961,0.53822l0,-140.74407zm165.233,109.2583c-0.80733,-31.75488 -29.33289,-70.23748 -64.04797,-86.92225c-21.79784,-10.22615 -36.06062,-13.18635 -63.24064,-13.45546l-22.60517,0l1.34555,11.8408c1.88376,15.07011 15.60833,44.94122 27.71824,59.47312c12.37902,15.33922 35.5224,30.67844 57.32024,38.21349c14.26278,4.84396 22.87428,5.9204 40.90459,5.38218l22.87428,-0.53822l-0.26911,-13.99367zm37.13706,0.26911c39.82815,-20.18318 66.73906,-64.04797 66.73906,-108.72008c0,-35.5224 -12.64813,-66.20084 -37.94439,-91.4971c-14.53189,-14.801 -41.1737,-30.94755 -45.74855,-27.98735c-3.49842,2.15287 -2.9602,235.20137 0.26911,235.20137c1.61465,0 9.14971,-3.22931 16.68477,-6.99684zm-121.0991,-125.13574c45.74855,-15.33922 80.46363,-54.89826 84.76937,-96.87928c1.34555,-11.30258 0.80733,-12.64813 -4.84396,-13.99367c-29.33289,-8.07327 -80.19452,8.34238 -106.83632,33.90775c-18.83764,18.29942 -38.21349,56.51292 -38.21349,75.88877c0,6.72773 0,6.72773 24.21982,6.72773c17.49209,0 29.06378,-1.61465 40.90459,-5.65129z"/>
    <path stroke="null" d="m410.36432,1095.78471c-5.9204,-9.14971 -1.88376,-16.14655 13.45546,-23.41249c7.80416,-3.76753 13.18635,-8.61149 15.87744,-14.53189c7.26595,-15.07011 11.30258,-3.76753 -46.82499,-130.51792c-16.68477,-36.32973 -32.02399,-68.08461 -34.44597,-70.50659c-2.15287,-2.69109 -10.49526,-6.45862 -18.29942,-8.8806c-11.30258,-3.22931 -14.801,-5.65129 -16.14655,-10.49526c-1.88376,-8.07327 2.9602,-17.7612 9.14971,-17.7612c33.10042,-1.07644 80.46363,0.80733 83.42383,3.22931c6.18951,5.11307 2.9602,19.10675 -5.38218,23.14338c-8.61149,4.03664 -9.14971,5.9204 -3.49842,16.95387l4.30575,7.80416l54.36004,-0.53822l54.36004,-0.80733l10.76436,-25.02715l10.76436,-24.75804l53.0145,0c51.13073,0 53.28361,0.26911 55.9747,5.65129c5.38218,9.95704 1.07644,17.7612 -12.37902,22.87428c-15.07011,5.65129 -11.03347,-2.42198 -72.39035,141.82051l-48.17053,112.2185l-51.93806,0l-51.93806,0l-4.03664,-6.45862zm74.81234,-142.62783c8.34238,-19.91407 15.33922,-37.40617 15.33922,-39.02082c0,-1.88376 -11.03347,-2.9602 -33.63864,-2.9602c-28.25646,0 -33.63864,0.53822 -33.63864,4.03664c0,2.42198 5.65129,15.87744 12.37902,30.40933c6.72773,14.26278 13.99367,30.14022 16.14655,34.98419c2.15287,4.57486 4.84396,8.61149 5.9204,8.61149c1.07644,0 8.8806,-16.14655 17.49209,-36.06062z"/>
    <path stroke="null" d="m687.81582,1097.13026c-6.72773,-7.26595 -4.57486,-13.99367 7.26595,-21.52873l9.95704,-6.45862l-0.53822,-109.2583l-0.80733,-108.98919l-6.72773,-3.49842c-12.91724,-6.45862 -16.68477,-16.14655 -9.14971,-23.41249c3.76753,-3.76753 18.29942,-4.30575 120.56089,-4.30575l116.25514,0l16.14655,22.33606c22.06695,30.14022 22.87428,31.75488 19.10675,39.82815c-5.38218,10.22615 -13.72457,9.41882 -34.44597,-4.03664c-24.75804,-15.87744 -37.67528,-18.29942 -88.5369,-17.22298l-41.71191,0.80733l0,39.02082l0,39.02082l36.86795,0.80733l36.86795,0.80733l4.30575,-8.07327c5.11307,-9.95704 13.18635,-14.801 21.52873,-12.64813c7.53506,1.88376 42.78835,50.59251 44.94122,61.8951c1.88376,9.14971 -5.38218,17.7612 -14.801,17.7612c-3.49842,0 -11.8408,-4.30575 -18.56853,-9.41882l-12.10991,-9.41882l-49.51608,0.53822l-49.51608,0.80733l0,39.02082l0,39.02082l48.43964,0c47.3632,0 48.70875,-0.26911 64.58619,-7.53506c8.61149,-4.03664 19.91407,-10.49526 24.75804,-14.26278c11.30258,-8.61149 22.06695,-7.80416 26.91091,1.61465c3.76753,7.53506 3.76753,7.26595 -20.45229,41.4428l-14.26278,20.45229l-116.52425,0c-111.41118,0 -116.52425,-0.26911 -120.82999,-5.11307z"/>
   </g>
  </g>
 </g>

</svg>