<svg width="130" height="84" xmlns="http://www.w3.org/2000/svg" stroke="null" style="vector-effect: non-scaling-stroke;" preserveAspectRatio="xMidYMid meet" version="1.0">

 <g stroke="null">
  <title stroke="null">Layer 1</title>
  <g stroke="null" id="svg_1" fill="white" transform="translate(0 160) scale(0.1 -0.1)">
   <path stroke="null" id="svg_2" d="m4.10176,1391.61347c1.78062,-150.75931 2.37416,-160.25596 14.83852,-183.40405c52.82511,-98.52774 199.42964,-113.36626 274.21576,-28.48995c42.14138,48.07679 51.04449,128.79831 21.961,189.33945c-35.0189,70.63133 -97.9342,95.56004 -202.39735,78.9409c-11.27727,-1.78062 -11.87081,1.78062 -13.65143,50.45095l-1.78062,51.63803l-47.48325,0l-47.48325,0l1.78062,-158.47534zm203.58443,-21.961c20.18038,-21.961 26.70933,-42.14138 26.70933,-86.06339c0,-33.83181 -20.77392,-77.75382 -41.54784,-88.43755c-16.61914,-8.30957 -51.04449,-4.74832 -62.32176,6.52895c-22.55454,22.55454 -29.08349,41.54784 -29.08349,86.06339c0,52.23157 10.68373,78.34736 36.79952,92.59233c27.30287,14.83852 48.07679,11.87081 69.44425,-10.68373z"/>
   <path stroke="null" id="svg_3" d="m679.55097,1339.3819l0,-210.70691l47.48325,0l46.88971,0l1.78062,75.9732l1.78062,75.37966l50.45095,-74.19258l51.04449,-74.19258l61.13468,-1.78062l61.13468,-1.78062l-11.87081,16.61914c-6.52895,8.90311 -17.21268,21.961 -23.14808,28.48995c-5.93541,6.52895 -31.45765,36.79952 -56.9799,67.07009l-46.88971,55.19928l16.61914,21.961c9.49665,11.87081 27.30287,33.23827 39.76722,46.88971c13.65143,14.83852 21.36746,27.89641 18.39976,32.05119c-2.37416,4.15478 -1.78062,5.34187 1.78062,3.56124c3.56124,-2.37416 16.0256,7.71603 27.89641,21.961l20.77392,26.11579l-60.54114,0.59354l-60.54114,0.59354l-41.54784,-64.69593c-22.55454,-35.61244 -43.32846,-65.28947 -45.70263,-65.28947c-2.9677,-0.59354 -4.74832,51.63803 -4.74832,115.14688l0,115.74042l-47.48325,0l-47.48325,0l0,-210.70691z"/>
   <path stroke="null" id="svg_4" d="m456.97325,1446.21921c-34.42536,-13.05789 -62.9153,-38.58014 -83.09568,-74.78612c-16.0256,-29.08349 -17.80622,-37.39306 -17.80622,-85.46985c0,-47.48325 1.78062,-56.9799 16.61914,-83.09568c38.58014,-70.03779 133.54664,-96.74712 238.00978,-67.66363l22.55454,6.52895l-3.56124,26.70933c-4.74832,35.61244 -5.93541,36.79952 -31.45765,30.86411c-33.83181,-7.71603 -89.03109,-6.52895 -110.39855,2.9677c-21.961,8.90311 -36.79952,24.33516 -42.14138,43.922l-4.15478,13.05789l103.27607,0c118.70812,0 112.77271,-2.9677 107.43085,55.19928c-7.12249,84.87631 -54.01219,134.14018 -131.17247,138.29496c-26.11579,1.18708 -48.67033,-1.18708 -64.10239,-6.52895zm71.81841,-56.38636c19.58684,-7.12249 28.48995,-18.9933 35.0189,-46.29617l4.15478,-18.9933l-62.9153,0c-42.14138,0 -62.9153,2.37416 -62.9153,6.52895c0,13.05789 25.52225,51.63803 37.9866,57.57344c16.61914,8.30957 27.89641,8.30957 48.67033,1.18708z"/>
   <path stroke="null" id="svg_5" d="m1072.47485,1443.84505c-64.69593,-22.55454 -103.86961,-82.50214 -103.86961,-158.47534c0,-34.42536 2.9677,-49.26387 16.0256,-75.37966c60.54114,-124.64353 264.12557,-109.80501 303.29925,21.961c10.68373,35.61244 11.27727,85.46985 1.78062,117.52104c-10.68373,35.61244 -52.82511,78.9409 -89.62463,92.59233c-40.9543,14.83852 -88.43755,15.43206 -127.61123,1.78062zm103.86961,-75.9732c29.67703,-36.79952 30.86411,-115.74042 1.78062,-156.10118c-14.24497,-20.18038 -46.29617,-27.89641 -70.03779,-16.61914c-21.961,10.68373 -42.73492,53.41865 -42.73492,88.43755c0,45.10909 6.52895,64.69593 28.48995,86.65693c18.39976,18.9933 23.14808,20.77392 45.10909,17.80622c17.21268,-2.37416 28.48995,-8.30957 37.39306,-20.18038z"/>
   <path stroke="null" id="svg_6" d="m1172.18967,1071.69509c-27.89641,-4.15478 -119.8952,-17.21268 -204.77151,-29.08349c-242.75811,-33.83181 -644.5851,-90.81171 -735.99035,-103.86961c-45.70263,-7.12249 -115.74042,-16.61914 -155.50764,-21.961l-73.00549,-10.09019l0,-46.29617c0,-41.54784 1.18708,-46.29617 11.27727,-46.29617c6.52895,0 132.35955,17.21268 280.74471,38.58014c147.79161,20.77392 299.73801,42.14138 337.13106,47.48325c37.39306,4.74832 113.9598,15.43206 169.15907,23.74162c55.79282,8.30957 141.26266,20.18038 189.93299,26.70933c49.26387,6.52895 129.98539,17.80622 179.8428,24.92871l90.21817,13.05789l0,46.29617l0,46.29617l-18.9933,-0.59354c-10.68373,-0.59354 -42.14138,-4.15478 -70.03779,-8.90311z"/>
  </g>
 </g>
</svg>