<svg width="130" height="84" xmlns="http://www.w3.org/2000/svg" stroke="null" style="vector-effect: non-scaling-stroke;" preserveAspectRatio="xMidYMid meet" version="1.0">
 <g id="Layer_1">
  <title>Layer 1</title>
  <g stroke="null">
   <g stroke="null" fill="white" transform="translate(0 276) scale(0.1 -0.1)">
    <path stroke="null" d="m2.84862,2348.92708l0,-146.67057l148.6349,0l148.6349,0l0,146.67057l0,146.67057l-148.6349,0l-148.6349,0l0,-146.67057zm169.45689,130.17013c3.79772,-0.52382 6.54779,-1.70243 7.07162,-2.88103c1.1786,-3.2739 -2.09529,-22.65536 -5.6311,-33.00088c-13.3575,-39.1558 -50.54896,-71.89477 -94.68109,-83.41888c-10.34551,-2.61912 -17.02426,-3.40485 -36.14382,-3.92868l-23.4411,-0.78574l0.91669,8.64309c2.09529,20.95294 12.04794,44.91786 26.32213,64.03742c19.38147,25.7983 47.79889,43.73926 79.2283,50.1561c9.16691,1.83338 36.27477,2.48816 46.35838,1.1786zm39.54867,-13.09559c48.32271,-23.57206 78.04969,-78.70447 71.23999,-132.39638c-5.10728,-40.72727 -27.76264,-75.69249 -62.98977,-97.03829c-7.46448,-4.58346 -23.31014,-12.04794 -25.40544,-12.04794c-0.39287,0 -0.65478,56.04911 -0.65478,124.53902l0,124.40807l3.01198,-0.78574c1.57147,-0.52382 8.25022,-3.53581 14.79801,-6.67875zm-150.07542,-124.93189c16.76235,-2.09529 29.33411,-5.89301 45.17977,-13.75037c38.10816,-18.72669 64.56124,-52.25139 71.23999,-90.22859c1.83338,-10.34551 1.83338,-16.50044 -0.13096,-17.15522c-4.4525,-1.70243 -27.10786,-2.75007 -37.9772,-1.83338c-57.35867,4.97632 -106.72903,48.32271 -118.12219,103.58609c-1.1786,5.50015 -2.09529,12.44081 -2.09529,15.45279l0,5.23823l15.45279,0c8.51213,0 20.42911,-0.65478 26.45308,-1.30956z"/>
    <path stroke="null" d="m375.02517,2365.68943c0.39287,-57.35867 0.39287,-58.1444 3.40485,-64.56124c3.92868,-8.51213 10.86934,-15.45279 19.11956,-19.25051c6.28588,-2.88103 8.51213,-3.01198 37.84624,-3.40485l31.03654,-0.39287l0,11.78603l0,11.78603l-28.02455,0.39287c-27.8936,0.39287 -28.15551,0.39287 -31.69132,3.66676c-5.50015,5.10728 -7.07162,10.47647 -7.07162,23.83397l0,12.1789l30.77463,-0.39287l30.77463,-0.39287l0,11.91698l0,11.78603l-30.77463,0l-30.77463,0l0,17.67904l0,17.67904l32.73897,0l32.73897,0l0,11.78603l0,11.78603l-45.17977,0l-45.31073,0l0.39287,-57.88249z"/>
    <path stroke="null" d="m484.76619,2350.89142l0,-72.6805l12.44081,0l12.44081,0l0,72.6805l0,72.6805l-12.44081,0l-12.44081,0l0,-72.6805z"/>
    <path stroke="null" d="m765.01173,2370.27289c0,-57.88249 0.52382,-63.12073 7.07162,-74.25197c6.41684,-11.00029 19.64338,-17.81 34.44139,-17.81l6.94066,0l0,11.13125l0,11.13125l-5.10728,0.78574c-6.94066,1.1786 -12.57176,4.71441 -15.45279,9.95265c-1.96434,3.53581 -2.48816,8.25022 -2.75007,26.97691l-0.52382,22.52441l11.91698,0l11.91698,0l0,11.13125l0,11.13125l-11.78603,0l-11.78603,0l0,20.29816l0,20.29816l-12.44081,0l-12.44081,0l0,-53.29904z"/>
    <path stroke="null" d="m1034.78081,2350.89142l0,-72.6805l12.44081,0l12.44081,0l0,72.6805l0,72.6805l-12.44081,0l-12.44081,0l0,-72.6805z"/>
    <path stroke="null" d="m574.47095,2385.46377c-25.7983,-3.2739 -42.29874,-19.38147 -46.62029,-45.57264c-3.2739,-19.64338 2.61912,-38.10816 16.10757,-50.54896c11.52412,-10.60742 18.72669,-13.09559 39.67963,-13.09559c16.36948,0 17.28617,0.13096 25.53639,4.05963c4.71441,2.22625 10.86934,6.15493 13.75037,8.77404l5.23823,4.71441l-7.33353,7.46448l-7.46448,7.46448l-4.97632,-4.05963c-18.85764,-15.05992 -48.84654,-8.51213 -54.87051,12.04794c-1.04765,3.53581 -1.96434,6.67875 -1.96434,6.94066c0,0.26191 18.85764,0.39287 41.90588,0.39287l41.90588,0l0,8.25022c-0.13096,34.44139 -26.45308,57.48962 -60.89448,53.16808zm24.09588,-25.14353c6.15493,-4.05963 10.60742,-10.47647 10.60742,-15.32184l0,-3.2739l-28.28647,0l-28.15551,0l0.65478,3.79772c1.1786,6.02397 6.54779,11.91698 14.14323,15.84566c6.02397,3.01198 8.25022,3.40485 16.23853,3.01198c7.46448,-0.39287 10.34551,-1.1786 14.79801,-4.05963z"/>
    <path stroke="null" d="m692.98601,2385.0709c-29.0722,-6.28588 -48.45367,-34.44139 -43.6083,-63.12073c4.19059,-24.48875 22.65536,-42.4297 48.0608,-46.62029c16.23853,-2.75007 34.83426,2.48816 46.35838,12.83367l5.6311,5.10728l-7.7264,7.7264l-7.85735,7.59544l-4.4525,-3.2739c-9.55978,-7.33353 -22.13154,-9.42882 -34.31044,-5.89301c-8.11926,2.48816 -17.02426,11.91698 -19.64338,20.56007c-2.61912,8.905 -2.61912,12.30985 0,20.95294c2.35721,8.11926 9.03595,15.97662 16.76235,19.64338c11.13125,5.50015 29.72698,2.75007 38.50102,-5.50015l3.01198,-2.88103l7.85735,8.11926l7.7264,7.98831l-5.36919,4.84537c-12.83367,11.52412 -32.08419,16.10757 -50.94183,11.91698z"/>
    <path stroke="null" d="m883.26487,2384.28516c-7.98831,-1.70243 -15.32184,-5.76206 -19.90529,-11.39316l-4.05963,-4.97632l0,7.59544l0,7.46448l-12.44081,0l-12.44081,0l0,-52.38234l0,-52.38234l12.44081,0l12.44081,0l0,29.20316c0,16.89331 0.65478,31.29845 1.44051,34.31044c3.40485,12.70272 13.22654,19.25051 28.81029,19.11956l9.03595,0l0,11.52412c0,10.86934 -0.13096,11.65507 -2.88103,12.44081c-3.53581,0.91669 -5.23823,0.78574 -12.44081,-0.52382z"/>
    <path stroke="null" d="m943.76648,2383.8923c-21.86963,-7.33353 -36.14382,-23.17919 -40.07249,-44.52499c-6.8097,-36.92955 27.23882,-70.06139 65.8708,-64.03742c46.75124,7.20257 65.34697,62.72786 31.56036,94.68109c-3.79772,3.53581 -10.86934,8.38118 -15.7147,10.60742c-7.7264,3.66676 -10.34551,4.19059 -22.52441,4.58346c-9.16691,0.26191 -15.7147,-0.26191 -19.11956,-1.30956zm30.90558,-23.70301c11.65507,-5.50015 18.72669,-17.15522 18.59573,-30.2508c-0.13096,-18.85764 -13.61941,-32.3461 -32.3461,-32.3461c-10.34551,0 -18.20286,3.2739 -24.6197,10.47647c-15.45279,17.15522 -8.51213,45.44168 12.96463,53.42999c6.41684,2.35721 19.25051,1.70243 25.40544,-1.30956z"/>
    <path stroke="null" d="m1079.3058,2346.30796c0,-33.5247 0.26191,-37.19146 2.61912,-43.73926c7.33353,-19.51242 27.50073,-29.46507 54.08477,-26.715c16.36948,1.57147 29.59602,10.60742 36.14382,24.48875c3.40485,7.33353 3.40485,7.59544 3.79772,45.04882l0.39287,37.58433l-12.44081,0l-12.44081,0l-0.39287,-34.31044c-0.39287,-31.69132 -0.65478,-34.83426 -3.14294,-39.67963c-3.92868,-7.7264 -11.78603,-11.52412 -22.39345,-10.73838c-9.82169,0.78574 -15.32184,4.19059 -18.85764,11.91698c-2.22625,4.84537 -2.48816,9.03595 -2.48816,39.1558l0,33.65566l-12.44081,0l-12.44081,0l0,-36.66764z"/>
    <path stroke="null" d="m1192.84453,2381.40414c9.29787,-12.1789 34.44139,-47.14411 34.44139,-48.19176c0,-0.65478 -8.51213,-13.09559 -18.9886,-27.50073c-10.47647,-14.40514 -18.9886,-26.45308 -18.9886,-26.84595c0,-0.39287 5.89301,-0.65478 12.96463,-0.65478l13.09559,0l13.3575,18.33382l13.3575,18.46478l4.05963,-5.76206c2.22625,-3.01198 8.11926,-11.39316 13.22654,-18.33382l9.03595,-12.70272l13.61941,0c10.73838,0 13.3575,0.39287 12.44081,1.70243c-0.65478,0.78574 -9.69073,13.22654 -19.90529,27.50073c-12.83367,17.81 -18.33382,26.45308 -17.41713,27.50073c7.46448,9.69073 34.31044,46.75124 34.31044,47.27507c0,0.39287 -6.15493,0.78574 -13.61941,0.78574c-9.69073,0 -13.75037,-0.52382 -14.27419,-1.57147c-0.39287,-0.91669 -5.36919,-8.11926 -11.13125,-15.84566l-10.47647,-14.14323l-11.52412,15.7147l-11.52412,15.84566l-13.61941,0c-10.73838,0 -13.3575,-0.39287 -12.44081,-1.57147z"/>
    <path stroke="null" d="m445.47943,2224.51901c0,-0.65478 0.65478,-1.30956 1.30956,-1.30956c0.78574,0 1.30956,0.65478 1.30956,1.30956c0,0.78574 -0.52382,1.30956 -1.30956,1.30956c-0.65478,0 -1.30956,-0.52382 -1.30956,-1.30956z"/>
   </g>
  </g>
 </g>

</svg>