<svg width="130" height="84" xmlns="http://www.w3.org/2000/svg">
 <g id="Layer_1">
  <title>Layer 1</title>
  <g stroke="null" fill="white">
   <path stroke="null" d="m24.95613,43.0042c0,-3.78157 1.2101,-5.3158 4.32179,-5.3158c3.17652,0 4.36501,1.46941 4.36501,5.3158c0,3.78157 -1.23171,5.3158 -4.36501,5.3158c-3.15491,0 -4.32179,-1.46941 -4.32179,-5.3158m-4.14892,0c0,5.72637 2.85238,8.64358 8.49232,8.64358c5.61833,0 8.47071,-2.91721 8.47071,-8.64358c0,-5.76959 -2.85238,-8.66519 -8.47071,-8.66519c-5.63994,0 -8.49232,2.8956 -8.49232,8.66519m55.40537,0c0,-3.78157 1.2101,-5.3158 4.32179,-5.3158c3.17652,0 4.36501,1.46941 4.36501,5.3158c0,3.78157 -1.23171,5.3158 -4.36501,5.3158c-3.15491,0 -4.32179,-1.46941 -4.32179,-5.3158m-4.12731,0c0,5.72637 2.87399,8.64358 8.49232,8.64358c5.61833,0 8.4491,-2.91721 8.4491,-8.64358c0,-5.76959 -2.85238,-8.66519 -8.4491,-8.66519c-5.63994,0 -8.49232,2.8956 -8.49232,8.66519m47.32362,-12.25228l0,15.70971c0,3.19813 1.9232,4.90523 5.59672,4.90523l3.54387,0c0.90758,0 1.31815,-0.82114 1.31815,-1.59906c0,-0.77792 -0.41057,-1.59906 -1.31815,-1.59906l-2.07446,0c-1.87998,0 -2.87399,-0.10804 -2.87399,-2.35538l0,-7.60635l4.64593,0c0.92919,0 1.31815,-0.82114 1.31815,-1.59906c0,-0.77792 -0.41057,-1.59906 -1.31815,-1.59906l-4.64593,0l0,-4.25697c0,-1.08045 -0.77792,-1.72872 -2.03124,-1.72872c-1.01562,0 -2.1609,0.45379 -2.1609,1.72872m-78.50535,0l0,15.70971c0,3.19813 1.94481,4.90523 5.61833,4.90523l3.56548,0c0.90758,0 1.31815,-0.82114 1.31815,-1.59906c0,-0.77792 -0.41057,-1.59906 -1.31815,-1.59906l-2.07446,0c-1.90159,0 -2.87399,-0.10804 -2.87399,-2.35538l0,-7.60635l4.64593,0c0.92919,0 1.31815,-0.82114 1.31815,-1.59906c0,-0.77792 -0.41057,-1.59906 -1.31815,-1.59906l-4.64593,0l0,-4.25697c0,-1.08045 -0.75631,-1.72872 -2.03124,-1.72872c-1.03723,0 -2.20411,0.45379 -2.20411,1.72872m66.10181,3.93283c-4.84041,0 -6.89326,1.90159 -6.89326,6.39625l0,8.51393c0,1.05884 0.77792,1.70711 2.11768,1.70711c1.31815,0 2.11768,-0.62666 2.11768,-1.6855l0,-8.2114c0,-2.39859 0.41057,-3.15491 3.02525,-3.15491l1.23171,0c2.61468,0 3.04686,0.75631 3.04686,3.15491l0,8.2114c-0.02161,1.05884 0.77792,1.70711 2.09607,1.70711c1.31815,0 2.09607,-0.62666 2.09607,-1.6855l0,-8.51393c0,-4.49466 -2.05285,-6.39625 -6.89326,-6.39625l-1.94481,-0.04322l0,0zm-14.82375,1.79354l0,13.00859c0,1.33976 1.10206,1.81515 2.13929,1.81515c1.03723,0 2.11768,-0.4754 2.11768,-1.81515l0,-13.00859c0,-1.33976 -1.08045,-1.81515 -2.13929,-1.81515c-1.01562,0 -2.11768,0.49701 -2.11768,1.81515m-0.28092,-6.35303c0,1.31815 1.05884,2.37699 2.37699,2.37699s2.37699,-1.05884 2.37699,-2.37699c0,-1.31815 -1.05884,-2.39859 -2.39859,-2.39859c-1.27493,0 -2.35538,1.08045 -2.35538,2.39859m-33.96928,17.74096l0,-9.46472c0.86436,-0.19448 1.94481,-0.28092 2.96043,-0.28092c3.32778,0 4.66754,1.23171 4.66754,4.73236c0,3.93283 -1.12367,5.2942 -4.73236,5.2942c-0.99401,0 -2.1609,-0.08644 -2.8956,-0.28092m-1.66389,-12.70607c-1.64228,0.36735 -2.54986,1.38297 -2.54986,3.17652l0,18.02187c0,1.27493 1.08045,1.72872 2.09607,1.72872c1.01562,0 2.09607,-0.45379 2.09607,-1.72872l0,-5.22937c0.99401,0.21609 1.87998,0.32413 3.04686,0.32413c2.57147,0 3.91122,-0.43218 5.38063,-1.29654c2.1609,-1.29654 3.43582,-3.69513 3.43582,-6.93648c0,-5.63994 -2.8956,-8.49232 -8.62198,-8.49232c-1.53424,-0.02161 -3.43582,0.10804 -4.88362,0.43218m-42.78574,-4.90523l0,7.62796l-9.03255,0l0,-7.62796c0,-1.08045 -0.75631,-1.70711 -2.03124,-1.70711c-0.99401,0 -2.1825,0.45379 -2.1825,1.70711l0,19.31841c0,1.08045 0.77792,1.72872 2.05285,1.72872c1.01562,0 2.1609,-0.45379 2.1609,-1.72872l0,-7.86566l9.03255,0l0,7.86566c0,1.08045 0.77792,1.72872 2.05285,1.72872c0.99401,0 2.1609,-0.45379 2.1609,-1.72872l0,-19.31841c0,-1.08045 -0.77792,-1.70711 -2.05285,-1.70711c-0.99401,-0.02161 -2.1609,0.43218 -2.1609,1.70711"/>
  </g>
 </g>

</svg>