<svg width="130" height="84" xmlns="http://www.w3.org/2000/svg" stroke="null" style="vector-effect: non-scaling-stroke;" preserveAspectRatio="xMidYMid meet" version="1.0">
 <g id="Layer_1">
  <title>Layer 1</title>
  <g stroke="null">
   <g stroke="null" fill="white" transform="translate(0 250) scale(0.1 -0.1)">
    <path stroke="null" d="m0.87709,-961.23729c-0.8654,-0.76144 -1.15387,-4.66384 -0.57694,-8.85177l0.8654,-7.51925l25.96214,0l25.96214,0l0,8.56623l0,8.56623l-25.38521,0.28554c-19.32737,0.19036 -25.67368,0 -26.82755,-1.04698z"/>
    <path stroke="null" d="m70.10947,-961.23729c-0.8654,-0.76144 -1.15387,-4.66384 -0.57694,-8.85177l0.8654,-7.51925l33.75079,-0.28554l34.03925,-0.28554l0.57694,-30.17217l0.8654,-30.17217l34.61619,0l34.61619,0l0.8654,30.26735l0.57694,30.17217l57.69365,0l57.69365,0l0.57694,-30.17217l0.8654,-30.26735l119.71433,0l119.71433,0l0,9.04213l0,9.04213l-82.21345,0.28554c-61.15527,0.19036 -82.50192,0.4759 -84.23273,1.42771c-2.59621,1.33252 -2.88468,5.99636 -0.57694,8.94695c1.73081,2.18915 2.30775,2.18915 70.09779,2.37951l68.07851,0.28554l0.8654,6.18672c0.57694,3.33131 0,7.13853 -0.8654,8.28069l-1.44234,2.18915l-67.50157,0l-67.50157,0l-1.73081,2.18915c-2.30775,2.95059 -2.01928,7.61443 0.57694,8.94695c1.73081,0.9518 23.07746,1.23734 84.23273,1.42771l82.21345,0.28554l0,8.56623l0,8.56623l-247.50577,0.28554c-205.10093,0.19036 -247.50577,0 -248.94811,-1.04698z"/>
    <path stroke="null" d="m593.10243,-960.57103c-1.15387,-0.38072 -2.01928,-18.17945 -2.01928,-39.59502l0,-38.92876l35.4816,0.28554l35.19313,0.28554l1.44234,15.22886l1.44234,15.22886l12.98107,0.28554l13.26954,0.28554l51.92429,-15.13367c28.84683,-8.28069 54.5205,-15.41922 57.11672,-15.70476c2.88468,-0.38072 33.46232,-0.66626 68.36698,-0.66626l63.17455,0l10.09639,6.66262l10.09639,6.66262l80.19418,0l79.90571,0l10.09639,-6.47226l10.38486,-6.37708l36.92394,-0.28554c20.76971,-0.09518 38.65475,0.19036 40.09709,0.66626c1.73081,0.57108 -6.63477,6.85298 -22.50052,16.9421c-13.84648,8.75659 -26.25061,16.4662 -27.40448,16.9421c-1.15387,0.57108 -15.57729,9.51803 -31.73151,19.98787c-16.44269,10.46984 -32.01998,20.17823 -34.32772,21.60594l-4.61549,2.66505l-55.38591,0l-55.67437,0l-6.63477,-3.52167c-3.75009,-1.99879 -16.44269,-9.61321 -27.98142,-16.9421c-11.53873,-7.32889 -23.36593,-14.56259 -25.96214,-16.18066c-2.59621,-1.52289 -15.00035,-9.13731 -27.40448,-16.84692c-12.40414,-7.80479 -23.36593,-14.08669 -24.5198,-14.08669c-1.15387,0 -17.01963,3.99757 -34.90466,8.85177c-18.1735,4.75902 -40.96249,10.94574 -50.77041,13.51561c-10.09639,2.66505 -18.1735,5.42528 -18.1735,6.18672c0,0.76144 25.96214,9.32767 57.69365,18.94089c31.73151,9.61321 57.40518,17.98909 56.82825,18.56017c-1.15387,1.14216 -73.27094,1.99879 -84.80967,1.04698c-3.46162,-0.28554 -26.53908,-6.94817 -51.63582,-14.75295l-45.28952,-14.27705l-15.28882,0l-15.28882,0l-0.8654,14.56259l-0.8654,14.46741l-33.46232,0.28554c-18.1735,0.09518 -34.03925,-0.09518 -35.19313,-0.38072zm465.87624,-30.07699c13.26954,-8.56623 24.23133,-16.08548 24.80827,-16.65656c0.8654,-0.9518 -10.96179,-1.23734 -51.05888,-1.23734c-37.21241,0 -52.21276,0.28554 -52.21276,1.04698c0,0.66626 8.94252,6.7578 19.90431,13.61079c10.96179,6.85298 21.92359,13.89633 24.5198,15.60958c2.59621,1.61807 6.05783,3.04577 7.50017,3.04577c1.73081,0 13.55801,-6.94817 26.53908,-15.41922z"/>
   </g>
  </g>
  <g stroke="null">
   <metadata stroke="null" id="svg_26">image/svg+xml</metadata>

   <g stroke="null" id="svg_2" transform="matrix(0.102958 0 0 -0.102958 -841.959 -215.119)">
    <g stroke="null" id="svg_3" transform="translate(0 178.333) scale(0.1 0.1)">
     <path stroke="null" fill-rule="nonzero" fill="white" d="m90377.24435,-28061.14972c-24.08,-4.652 -66.52,-12.621 -104.29,-12.621c-129.44,0 -202.76,54.43 -202.76,202.762c0,154.058 97.4,208.488 219.95,208.488c37.77,0 63.02,-6.9 82.44,-12.62l0,-72.779c-14.32,4.028 -54.34,10.918 -84.14,10.918c-71.08,0 -127.21,-10.918 -127.21,-131.148c0,-118.609 58.46,-131.762 122.64,-131.762c34.37,0 62.4,6.891 93.37,13.153l0,-74.391" id="svg_24"/>
     <path stroke="null" fill-rule="nonzero" fill="white" d="m90741.58435,-27867.61072c0,106.531 -34.92,139.199 -91.67,139.199c-57.83,0 -92.74,-38.398 -94.53,-139.199c-1.7,-100.801 35,-139.738 92.83,-139.738c57.3,0 93.37,33.218 93.37,139.738zm-277.24,-0.539c0,152.371 73.85,205.629 185.03,205.629c111.1,0 183.25,-56.758 183.25,-205.629c0,-148.332 -72.69,-205.621 -184.41,-205.621c-111.09,0 -183.87,55.512 -183.87,205.621" id="svg_23"/>
     <path stroke="null" fill-rule="nonzero" fill="white" d="m91056.68435,-27860.71972c42.43,0 80.21,12.629 80.21,63.558c0,50.403 -29.72,58.992 -79.04,58.992l-28.03,0l0,-122.55l26.86,0zm-113.33,192.469l111.09,0c122.55,0 172.95,-32.68 172.95,-125.411c0,-75.648 -38.93,-95.699 -84.77,-109.488l0,-6.801l12.09,-2.328c41.79,-15.492 66.42,-95.07 92.2,-144.934l0,-10.828l-95.7,0c-18.89,53.262 -38.94,134.012 -79.04,145.469l-42.35,0l0,-145.469l-86.47,0l0,399.79" id="svg_22"/>
     <path stroke="null" fill-rule="nonzero" fill="white" d="m91435.43435,-27869.30972l31.51,0c50.4,0 75.56,16.031 75.56,65.879c0,50.402 -25.16,64.73 -71.52,64.73l-35.55,0l0,-130.609zm-86.47,201.059l108.85,0c117.99,0 175.19,-26.95 175.19,-129.45c0,-102.59 -68.12,-132.301 -154.06,-132.301l-43.51,0l0,-138.039l-86.47,0l0,399.79" id="svg_21"/>
     <path stroke="null" fill-rule="nonzero" fill="white" d="m91984.77435,-27867.61072c0,106.531 -34.9,139.199 -91.6,139.199c-57.9,0 -92.8,-38.398 -94.6,-139.199c-1.7,-100.801 35,-139.738 92.9,-139.738c57.3,0 93.3,33.218 93.3,139.738zm-277.2,-0.539c0,152.371 73.9,205.629 185,205.629c111.1,0 183.3,-56.758 183.3,-205.629c0,-148.332 -72.7,-205.621 -184.4,-205.621c-111.1,0 -183.9,55.512 -183.9,205.621" id="svg_20"/>
     <path stroke="null" fill-rule="nonzero" fill="white" d="m92299.87435,-27860.71972c42.5,0 80.2,12.629 80.2,63.558c0,50.403 -29.7,58.992 -79,58.992l-28,0l0,-122.55l26.8,0zm-113.3,192.469l111.1,0c122.6,0 173,-32.68 173,-125.411c0,-75.648 -39,-95.699 -84.8,-109.488l0,-6.801l12.1,-2.328c41.8,-15.492 66.4,-95.07 92.2,-144.934l0,-10.828l-95.7,0c-18.9,53.262 -39,134.012 -79.1,145.469l-42.3,0l0,-145.469l-86.5,0l0,399.79" id="svg_19"/>
     <path stroke="null" fill-rule="nonzero" fill="white" d="m92790.37435,-27920.86872l-40.1,138.039l-4.6,22.371l-5.7,0l-4.6,-22.371l-41.8,-138.039l96.8,0zm-232,-138.043l142.7,393.521l84.7,0l149.5,-393.521l0,-9.129l-95.7,0l-33.2,89.34l-125.4,0l-29.3,-89.34l-93.3,0l0,9.129" id="svg_18"/>
     <path stroke="null" fill-rule="nonzero" fill="white" d="m93082.57435,-27737.00172l-112.3,-2.867l0,71.618l311.7,0l0,-71.618l-112.9,2.867l0,-331.039l-86.5,0l0,331.039" id="svg_17"/>
     <path stroke="null" fill-rule="nonzero" fill="white" d="m93373.67435,-28068.04072l0,399.79l86.5,0l0,-399.79l-86.5,0" id="svg_16"/>
     <path stroke="null" fill-rule="nonzero" fill="white" d="m93839.87435,-27867.61072c0,106.531 -34.9,139.199 -91.6,139.199c-57.8,0 -92.8,-38.398 -94.5,-139.199c-1.7,-100.801 34.9,-139.738 92.8,-139.738c57.2,0 93.3,33.218 93.3,139.738zm-277.1,-0.539c0,152.371 73.8,205.629 184.9,205.629c111.1,0 183.3,-56.758 183.3,-205.629c0,-148.332 -72.7,-205.621 -184.4,-205.621c-111.1,0 -183.8,55.512 -183.8,205.621" id="svg_15"/>
     <path stroke="null" fill-rule="nonzero" fill="white" d="m94041.67435,-27668.25072l75.5,0l147.8,-210.188l20.6,-34.383l5.2,0l0,244.571l86.5,0l0,-399.79l-73.9,0l-151.8,218.239l-17.2,29.191l-6.2,0l0,-247.43l-86.5,0l0,399.79" id="svg_14"/>
     <path stroke="null" fill-rule="nonzero" fill="white" d="m84748.55435,-24950.81072l-647.84,-2367.58l-376.46,0l-457.93,1719.73l-464.69,-1719.73l-376.516,0l-647.844,2367.58l373.109,0l461.289,-1719.74l464.692,1719.74l369.7,0l468.1,-1719.74l461.33,1719.74l373.06,0" id="svg_13"/>
     <path stroke="null" fill-rule="nonzero" fill="white" d="m84921.28435,-24957.62072l373.11,30.53l0,-579.99l-6.8,-217.08l13.61,0c172.95,64.45 312.06,94.98 481.65,94.98c301.9,0 505.38,-135.72 505.38,-654.63l0,-1034.58l-373.11,0l0,1004.06c0,312.03 -152.64,352.72 -325.58,352.72c-108.59,0 -200.17,-23.76 -295.15,-50.89l0,-1305.89l-373.11,0l0,2360.77" id="svg_12"/>
     <path stroke="null" fill-rule="nonzero" fill="white" d="m86613.71435,-25652.95072l373.12,0l0,-1665.44l-373.12,0l0,1665.44zm186.56,671.61c193.36,0 223.88,-111.94 223.88,-237.45c0,-125.5 -40.72,-240.85 -223.88,-240.85c-183.15,0 -220.49,115.35 -220.49,240.85c0,125.51 33.93,237.45 220.49,237.45" id="svg_11"/>
     <path stroke="null" fill-rule="nonzero" fill="white" d="m87302.20435,-25652.95072l254.41,0l50.89,-135.67l23.77,0c98.33,84.78 254.32,159.44 457.88,159.44c23.72,0 50.85,0 77.98,-3.41l0,-366.3c-67.78,10.11 -139.03,20.31 -210.28,20.31c-101.79,0 -183.16,-23.72 -281.54,-67.83l0,-1271.98l-373.11,0l0,1665.44" id="svg_10"/>
     <path stroke="null" fill-rule="nonzero" fill="white" d="m88326.46435,-27318.39072l0,2360.77l373.12,30.53l0,-2391.3l-373.12,0" id="svg_9"/>
     <path stroke="null" fill-rule="nonzero" fill="white" d="m91704.61435,-26494.08072c0,315.37 -50.93,573.16 -349.39,573.16c-301.85,0 -376.51,-247.59 -376.51,-573.16c0,-301.88 61.06,-563.1 359.59,-563.1c298.46,0 366.31,247.61 366.31,563.1zm-352.78,864.9c529.14,0 732.74,-312.06 732.74,-864.9c0,-518.96 -190,-858.24 -739.55,-858.24c-549.46,0 -742.82,339.28 -742.82,858.24c0,552.84 220.48,864.9 749.63,864.9" id="svg_8"/>
     <path stroke="null" fill-rule="nonzero" fill="white" d="m93377.57435,-26494.08072c0,315.37 -50.9,573.16 -349.3,573.16c-301.9,0 -376.6,-247.59 -376.6,-573.16c0,-301.88 61.1,-563.1 359.6,-563.1c298.5,0 366.3,247.61 366.3,563.1zm-352.7,864.9c529.1,0 732.7,-312.06 732.7,-864.9c0,-518.96 -190,-858.24 -739.5,-858.24c-549.5,0 -742.9,339.28 -742.9,858.24c0,552.84 220.5,864.9 749.7,864.9" id="svg_7"/>
     <path stroke="null" fill-rule="nonzero" fill="white" d="m93999.07435,-27318.39072l0,2360.77l373.1,30.53l0,-2391.3l-373.1,0" id="svg_6"/>
     <path stroke="null" fill-rule="nonzero" fill="white" d="m89377.95435,-27009.73072c105.1,-3.31 162.83,-6.72 271.33,-6.72c230.59,0 383.32,122.11 383.32,607.2c0,332.38 -135.72,420.47 -379.92,420.47c-94.99,0 -183.16,-16.83 -274.73,-47.44l0,-973.51zm-373.12,1356.83l281.54,0l30.52,-122.11c112,61.05 318.77,145.83 505.42,145.83c339.1,0 586.71,-247.61 586.71,-841.12c0,-583.48 -261.22,-871.81 -695.29,-871.81c-159.79,0 -335.78,33.92 -335.78,33.92l0,-763.139l-373.12,-40.73l0,2459.159" id="svg_5"/>
     <path stroke="null" fill-rule="nonzero" fill="lightgray" d="m90851.95435,-24629.62072c-279.02,323.29 -1164.36,39.12 -2152.37,-644.69l0,-172.32c870.12,618.5 1637.15,903.88 1856.83,649.34c274.28,-317.81 -408.02,-1357.34 -1524.18,-2320.58c-1116.25,-963.299 -2243.89,-1485.5994 -2518.13,-1167.771c-142.44,165.082 -26.29,524.812 274.24,967.251l-174.69,0c-372.13,-554.95 -511.62,-1021.2 -320.56,-1242.599c348.31,-403.641 1651.18,148.578 2909.76,1234.629c1258.45,1086.05 1997.37,2293.13 1649.1,2696.74" id="svg_4"/>
    </g>
   </g>
  </g>
 </g>

</svg>