<svg width="130" height="84" xmlns="http://www.w3.org/2000/svg">
 <g id="Layer_1">
  <title>Layer 1</title>
  <g stroke="null">
   <g stroke="null" id="svg_3">
    <polygon stroke="null" fill="#525252" points="5.952249526977539,52.88186840713024 5.952249526977539,47.77323727309704 15.174348831176758,27.40499882400036 5.952249526977539,27.40499882400036 5.952249526977539,22.49539379775524 22.638277053833008,22.49539379775524 22.638277053833008,27.40499882400036 13.548870086669922,47.806417509913445 22.804147720336914,47.806417509913445 22.804147720336914,52.88186840713024 " class="st0" id="svg_13"/>
    <path stroke="null" fill="#525252" d="m23.86568,52.88188l1.99038,-30.38649l12.04181,0l2.78653,30.38649l-6.60143,0l-0.26538,-3.08509l-3.51634,0l-0.26538,3.08509l-6.17018,0zm7.03268,-8.16056l2.35528,0l-0.79615,-13.60094l-0.82933,0l-0.72981,13.60094z" class="st0" id="svg_12"/>
    <polygon stroke="null" fill="#525252" points="42.44253158569336,52.88186840713024 42.44253158569336,22.49539379775524 48.7785758972168,22.49539379775524 52.527122497558594,34.504015013575554 52.527122497558594,22.49539379775524 59.327613830566406,22.49539379775524 59.327613830566406,52.88186840713024 52.726165771484375,52.88186840713024 49.24299621582031,41.768915221095085 49.24299621582031,52.88186840713024 " class="st0" id="svg_11"/>
    <path stroke="null" fill="#525252" d="m61.7161,22.49539l6.7673,0l0,24.38217c0,0 0.06635,1.65865 1.725,1.65865c1.85769,0 1.92404,-1.69182 1.92404,-1.69182l0,-24.349l6.53508,0l0,24.31582c0,0 0.3649,6.80047 -8.65816,6.80047c-8.29325,0 -8.29325,-7.36441 -8.29325,-7.36441l0,-23.75188z" class="st0" id="svg_10"/>
    <rect stroke="null" fill="#525252" height="30.38649" width="7.09903" y="22.49539" x="117.47994" class="st0" id="svg_9"/>
    <path stroke="null" fill="#525252" d="m97.41026,28.9973l0,2.75336l-6.93316,0l0,-3.15144c0,-0.82933 -0.13269,-1.62548 -0.3649,-1.95721c-0.23221,-0.33173 -0.69663,-0.4976 -1.29375,-0.4976c-0.59711,0 -1.02836,0.16587 -1.26057,0.4976c-0.23221,0.33173 -0.56394,1.12788 -0.56394,1.95721l0,1.99038c0.39808,3.05192 6.33605,4.34567 9.32162,7.92835c1.75817,2.12307 1.5923,4.6774 1.5923,5.67259l0,1.89086c0,2.38846 -0.99519,4.21297 -2.52115,5.47355c-1.55913,1.29375 -3.74855,1.92404 -6.60143,1.92404c-2.91923,0 -4.61105,-0.59711 -5.9048,-1.79134c-1.29375,-1.19423 -2.35528,-3.18461 -2.35528,-5.93797l0,-2.68701l6.70095,0l0,3.01874c0,0.96202 0.13269,1.62548 0.43125,2.02355c0.29856,0.39808 0.56394,0.59711 1.29375,0.59711c0.69663,0 1.19423,-0.19904 1.45961,-0.56394c0.26538,-0.3649 0.43125,-1.06154 0.43125,-2.05673l0,-1.19423c0,-0.8625 -0.19904,-1.62548 -0.59711,-2.25577c-0.39808,-0.63029 -6.17018,-4.04711 -6.17018,-4.04711c-1.32692,-0.92884 -2.25577,-1.92404 -2.81971,-3.01874c-0.56394,-1.06154 -0.8625,-2.75336 -0.8625,-4.24615l0,-2.68701c0,-2.05673 0.99519,-3.74855 2.55432,-5.00913c1.55913,-1.26057 3.05192,-1.69182 5.67259,-1.69182c2.48798,0 5.20816,0.39808 6.46874,1.62548c1.26057,1.2274 2.32211,3.05192 2.32211,5.44038z" class="st0" id="svg_8"/>
    <path stroke="null" fill="#525252" d="m115.95398,28.9973l0,2.75336l-6.93316,0l0,-3.15144c0,-0.82933 -0.13269,-1.62548 -0.3649,-1.95721c-0.23221,-0.33173 -0.69663,-0.4976 -1.29375,-0.4976c-0.59711,0 -1.02836,0.16587 -1.26057,0.4976c-0.23221,0.33173 -0.56394,1.12788 -0.56394,1.95721l0,1.99038c0.39808,3.05192 6.33605,4.34567 9.32162,7.92835c1.75817,2.12307 1.5923,4.6774 1.5923,5.67259l0,1.89086c0,2.38846 -0.99519,4.21297 -2.52115,5.47355c-1.55913,1.29375 -3.74855,1.92404 -6.60143,1.92404c-2.91923,0 -4.61105,-0.59711 -5.9048,-1.79134c-1.29375,-1.19423 -2.35528,-3.18461 -2.35528,-5.93797l0,-2.68701l6.66778,0l0,3.01874c0,0.96202 0.13269,1.62548 0.43125,2.02355c0.29856,0.39808 0.56394,0.59711 1.29375,0.59711c0.69663,0 1.19423,-0.19904 1.45961,-0.56394c0.26538,-0.3649 0.43125,-1.06154 0.43125,-2.05673l0,-1.19423c0,-0.8625 -0.19904,-1.62548 -0.59711,-2.25577c-0.39808,-0.63029 -6.17018,-4.04711 -6.17018,-4.04711c-1.32692,-0.92884 -2.25577,-1.92404 -2.81971,-3.01874c-0.56394,-1.06154 -0.8625,-2.75336 -0.8625,-4.24615l0,-2.68701c0,-2.05673 0.99519,-3.74855 2.55432,-5.00913c1.55913,-1.26057 3.05192,-1.69182 5.67259,-1.69182c2.48798,0 5.20816,0.39808 6.46874,1.62548c1.29375,1.2274 2.35528,3.05192 2.35528,5.44038z" class="st0" id="svg_7"/>
    <rect stroke="null" fill="#525252" height="3.15144" width="39.80762" class="st1" y="61.04244" x="5.8859" id="svg_6"/>
    <rect stroke="null" fill="#FEFFFF" height="3.15144" width="39.47589" class="st2" y="61.04244" x="45.69353" id="svg_5"/>
    <rect stroke="null" fill="#989898" height="3.15144" width="39.47589" class="st3" y="61.04244" x="85.16942" id="svg_4"/>
   </g>
  </g>
 </g>

</svg>